<svg width="160" height="40" viewBox="0 0 160 40" fill="none" xmlns="http://www.w3.org/2000/svg">
<path d="M40.8433 23.9864H47.4934L44.0691 16.046L40.8433 23.9864ZM52.3073 26.8152C52.7539 27.8574 53.2502 28.6515 53.8954 29.2966C54.4909 29.9418 55.2353 30.2395 56.1286 30.2395H56.4264V30.8351H47.3941V30.2395H47.6919C48.1882 30.2395 48.6348 30.0907 48.9822 29.8425C49.3296 29.5448 49.5281 29.1974 49.5281 28.8003C49.5281 28.5522 49.4785 28.3041 49.3792 28.0063C49.28 27.7582 49.1807 27.4604 48.9822 27.1626L47.94 24.9294H40.4959L39.5033 27.3115C39.4041 27.51 39.3544 27.7085 39.3048 27.907C39.2552 28.1055 39.2552 28.3041 39.2552 28.5026C39.2552 29.0485 39.4041 29.4455 39.7514 29.7929C40.0988 30.1403 40.5455 30.2892 41.0914 30.2892H41.3892V30.8847H34.5405V30.2892H34.8383C35.5827 30.2892 36.2775 29.9418 36.9723 29.2966C37.6671 28.6515 38.2626 27.7582 38.7093 26.6663L45.1609 10.984H45.4586L52.3073 26.8152Z" fill="#373B37"/>
<path d="M61.9847 17.8325C62.7787 17.3362 63.6224 17.0881 64.6149 17.0881C65.7564 17.0881 66.6497 17.3362 67.2452 17.8821C67.8407 18.428 68.1881 19.2221 68.2874 20.2146C68.9822 19.1724 69.7266 18.3784 70.471 17.8821C71.265 17.3362 72.1583 17.0881 73.2005 17.0881C74.3916 17.0881 75.3345 17.4355 75.9301 18.0806C76.5752 18.7258 76.873 19.6687 76.873 20.8598V28.2047C76.873 28.9987 76.9722 29.5446 77.2204 29.8424C77.4685 30.1402 77.8655 30.2891 78.5107 30.2891H79.1559V30.8846H71.9102V30.2891H72.5554C73.1509 30.2891 73.5975 30.1402 73.8457 29.8424C74.0938 29.5446 74.1931 28.9987 74.1931 28.2047V21.7531C74.1931 20.8101 73.9449 20.1154 73.4983 19.6687C73.0516 19.2221 72.4561 18.9739 71.7117 18.9739C71.4636 18.9739 71.1658 19.0235 70.8184 19.1228C70.5206 19.2221 70.1732 19.3709 69.8755 19.5694C69.5777 19.768 69.2799 20.0161 68.9822 20.2642C68.6844 20.5124 68.4363 20.8598 68.2377 21.1575V28.2047C68.2377 28.9987 68.337 29.5446 68.5851 29.8424C68.8333 30.1402 69.2303 30.2891 69.8755 30.2891H70.5206V30.8846H63.275V30.2891H63.9201C64.5157 30.2891 64.9623 30.1402 65.2105 29.8424C65.4586 29.5446 65.5578 28.9987 65.5578 28.2047V21.7531C65.5578 20.8101 65.3097 20.1154 64.8631 19.6687C64.4164 19.2221 63.8209 18.9739 63.0765 18.9739C62.8283 18.9739 62.5306 19.0235 62.1832 19.1228C61.8854 19.2221 61.538 19.3709 61.2402 19.5694C60.9425 19.768 60.6447 20.0161 60.3469 20.2642C60.0492 20.5124 59.801 20.8598 59.6025 21.1575V28.2047C59.6025 28.9987 59.7514 29.5446 59.9995 29.8424C60.2477 30.1402 60.6943 30.2891 61.3395 30.2891H61.9847V30.8846H54.9375V30.2891H55.2353C55.8308 30.2891 56.2775 30.1402 56.5752 29.8424C56.8234 29.5446 56.9722 28.9987 56.9722 28.2047V20.165C56.9722 19.3709 56.8234 18.825 56.5752 18.5273C56.3271 18.2295 55.8804 18.0806 55.2353 18.0806H54.9375V17.4851L59.6521 17.0881V20.165C60.4462 19.1228 61.1906 18.3784 61.9847 17.8325Z" fill="#373B37"/>
<path d="M87.9894 22.0508C87.9894 21.5049 87.9398 20.959 87.7909 20.4627C87.642 19.9665 87.4435 19.5198 87.1954 19.1228C86.9472 18.7258 86.5998 18.428 86.2028 18.2295C85.8058 18.031 85.3592 17.8821 84.8629 17.8821C84.4659 17.8821 84.1185 17.9814 83.7214 18.1799C83.374 18.3784 83.0266 18.6265 82.7289 19.0235C82.4311 19.3709 82.183 19.8176 81.9845 20.3139C81.786 20.8101 81.6867 21.4057 81.6371 22.0508H87.9894ZM84.8629 17.0881C85.6569 17.0881 86.4013 17.2369 87.0961 17.4851C87.7909 17.7828 88.4361 18.1302 88.9324 18.6265C89.4783 19.1228 89.8753 19.7183 90.173 20.4627C90.4708 21.1575 90.6693 21.9516 90.6693 22.8449H81.5874V23.2915C81.5874 24.1848 81.6867 24.9789 81.8852 25.7233C82.0837 26.4677 82.3815 27.0632 82.7785 27.6092C83.1755 28.1551 83.6222 28.5521 84.1681 28.8498C84.714 29.1476 85.3592 29.2965 86.0539 29.2965C87.0465 29.2965 87.8405 28.9987 88.5353 28.4032C89.2301 27.8077 89.7264 26.964 90.0242 25.9218L90.4708 26.0211C90.3716 26.7655 90.1234 27.4603 89.8257 28.0558C89.5279 28.6513 89.1309 29.1972 88.6346 29.5943C88.1383 30.0409 87.5924 30.3387 86.9472 30.5868C86.3021 30.835 85.6569 30.9342 84.9125 30.9342C83.92 30.9342 83.0266 30.7853 82.2326 30.4379C81.4386 30.0905 80.7438 29.6439 80.1482 29.0484C79.5527 28.4528 79.1061 27.758 78.8083 26.9144C78.5105 26.0707 78.312 25.1774 78.312 24.1848C78.312 23.1427 78.5105 22.1501 78.8579 21.2568C79.2053 20.3635 79.7016 19.6191 80.2971 18.9739C80.8927 18.3288 81.5874 17.8325 82.3815 17.4851C83.1755 17.2866 84.0192 17.0881 84.8629 17.0881Z" fill="#373B37"/>
<path d="M98.7091 17.0882C99.4039 17.0882 99.9994 17.2371 100.396 17.5845C100.793 17.9319 101.042 18.4281 101.042 19.0733C101.042 19.6192 100.843 20.0162 100.496 20.314C100.148 20.6118 99.7513 20.7606 99.255 20.7606C98.9076 20.7606 98.6595 20.711 98.461 20.5621C98.2625 20.4133 98.0639 20.2147 97.9151 20.0162C97.7165 19.6688 97.5677 19.3711 97.4188 19.1229C97.2699 18.8748 97.0218 18.7755 96.6247 18.7755C96.5255 18.7755 96.3766 18.8252 96.2277 18.8748C96.0788 18.9244 95.9299 19.0733 95.8307 19.2222C95.6818 19.4207 95.5826 19.6192 95.4833 19.9666C95.384 20.2644 95.3344 20.6614 95.3344 21.1577V28.1056C95.3344 28.8996 95.4833 29.4455 95.7314 29.7433C95.9796 30.041 96.4262 30.1899 97.0714 30.1899H98.0639V30.7855H89.9746V30.1899H90.9672C91.5627 30.1899 92.0094 30.041 92.3071 29.7433C92.5553 29.4455 92.7041 28.8996 92.7041 28.1056V20.0659C92.7041 19.2718 92.5553 18.7259 92.3071 18.4281C92.059 18.1304 91.2649 17.9815 90.6198 17.9815H90.322V17.386L95.384 16.9889V18.8748C95.6818 18.3289 96.1781 17.8822 96.7736 17.5348C97.4188 17.2867 98.0143 17.0882 98.7091 17.0882Z" fill="#373B37"/>
<path d="M102.977 13.5148C102.977 13.0186 103.176 12.5719 103.523 12.2245C103.87 11.8771 104.317 11.6786 104.863 11.6786C105.359 11.6786 105.806 11.8771 106.203 12.2245C106.55 12.5719 106.749 13.0186 106.749 13.5148C106.749 14.0111 106.55 14.4578 106.203 14.8052C105.856 15.1526 105.409 15.3511 104.863 15.3511C104.367 15.3511 103.92 15.1526 103.523 14.8052C103.176 14.4081 102.977 14.0111 102.977 13.5148ZM106.203 28.2047C106.203 28.9987 106.352 29.5446 106.6 29.8424C106.848 30.1402 107.592 30.289 108.188 30.289H109.181V30.8846H101.141V30.289H101.786C102.382 30.289 102.828 30.1402 103.126 29.8424C103.374 29.5446 103.523 28.9987 103.523 28.2047V20.1153C103.523 19.3213 103.374 18.7754 103.027 18.5272C102.679 18.2791 102.282 18.1302 101.786 18.1302H101.488V17.5347L106.203 17.1377V28.2047Z" fill="#373B37"/>
<path d="M119.057 26.6166C119.057 25.9715 118.908 25.4256 118.66 24.9789C118.362 24.5323 118.014 24.0856 117.518 23.6886C117.022 23.2916 116.476 22.9938 115.831 22.6464C115.186 22.3486 114.491 22.0509 113.746 21.7531C112.208 21.1079 111.017 20.3635 110.223 19.4206C109.429 18.4777 109.032 17.3362 109.032 15.9963C109.032 15.2022 109.181 14.5075 109.528 13.8623C109.875 13.2171 110.322 12.7209 110.868 12.2742C111.414 11.8276 112.059 11.4802 112.754 11.2816C113.449 11.0335 114.243 10.9342 114.987 10.9342C115.781 10.9342 116.476 11.0335 117.071 11.232C117.667 11.4305 118.61 11.6787 119.255 12.0261C119.503 12.1749 119.702 12.2246 119.9 12.2246C120.049 12.2246 120.148 12.1749 120.248 12.0757C120.347 11.9764 120.397 11.7779 120.397 11.5298V11.3313H121.091V16.7903H120.397C120.198 15.2519 119.255 14.0112 118.362 13.1675C117.468 12.3238 116.327 11.8772 115.037 11.8772C114.044 11.8772 113.2 12.1253 112.605 12.6712C112.009 13.2171 111.712 13.9119 111.712 14.8052C111.712 15.3511 111.861 15.8474 112.109 16.2941C112.357 16.7407 112.754 17.1377 113.2 17.5347C113.647 17.9318 114.243 18.2792 114.888 18.5769C115.533 18.9243 116.228 19.2221 116.972 19.5199C118.66 20.2146 119.9 20.9591 120.694 21.8027C121.488 22.6464 121.885 23.7382 121.885 25.0285C121.885 25.9715 121.687 26.8151 121.29 27.5596C120.893 28.304 120.397 28.9491 119.801 29.4454C119.205 29.9417 118.511 30.3387 117.766 30.5869C117.022 30.835 116.277 30.9839 115.533 30.9839C114.59 30.9839 113.746 30.835 113.052 30.5372C112.357 30.2395 111.662 29.8921 110.967 29.4454C110.868 29.3958 110.719 29.2965 110.62 29.2965C110.521 29.2469 110.372 29.2469 110.223 29.2469C110.024 29.2469 109.826 29.3462 109.677 29.5447C109.528 29.7432 109.478 30.3387 109.478 30.835H108.833V24.036H109.528C109.677 24.83 109.925 25.6241 110.272 26.3685C110.62 27.1129 111.067 27.7581 111.612 28.304C112.109 28.8499 112.704 29.2965 113.349 29.5943C113.995 29.8921 114.689 30.0906 115.384 30.0906C116.476 30.0906 117.369 29.7928 118.064 29.1476C118.709 28.5025 119.057 27.6588 119.057 26.6166Z" fill="#373B37"/>
<path d="M130.769 23.0435L128.684 23.7879C126.501 24.5819 125.409 25.6737 125.409 27.1129C125.409 27.7085 125.607 28.2544 125.955 28.701C126.352 29.1477 126.898 29.3958 127.741 29.3958C128.287 29.3958 128.734 29.2966 129.131 29.1477C129.528 28.9988 129.875 28.8003 130.173 28.5025L130.769 27.9566V23.0435ZM135.831 28.0062C135.731 28.9988 135.483 29.7432 134.987 30.2395C134.491 30.7358 133.895 30.9839 133.2 30.9839C132.605 30.9839 132.059 30.7854 131.662 30.438C131.265 30.0906 130.967 29.5447 130.818 28.8003L130.322 29.2966C129.925 29.644 129.578 29.9417 129.23 30.1899C128.883 30.3884 128.585 30.5869 128.287 30.6861C127.989 30.7854 127.692 30.8847 127.394 30.9343C127.096 30.9839 126.798 30.9839 126.501 30.9839C126.004 30.9839 125.508 30.8847 125.061 30.7358C124.615 30.5869 124.218 30.3387 123.87 30.041C123.523 29.7432 123.275 29.3958 123.076 28.9492C122.878 28.5025 122.779 28.0559 122.779 27.4603C122.779 26.4181 123.176 25.5745 123.92 24.8797C124.664 24.1849 125.756 23.639 127.146 23.2916L130.868 22.3487V20.4628C130.868 19.5695 130.62 18.9244 130.173 18.4777C129.726 18.0311 129.131 17.8325 128.386 17.8325C127.692 17.8325 127.096 17.9814 126.65 18.3288C126.203 18.6266 125.657 19.0236 125.657 19.4703C125.657 19.6688 125.707 19.8177 125.756 19.9665C125.855 20.1154 125.855 20.3139 125.855 20.5621C125.855 20.9591 125.756 21.2569 125.508 21.5546C125.26 21.8028 124.913 21.9516 124.466 21.9516C124.069 21.9516 123.771 21.8524 123.523 21.6043C123.275 21.3561 123.126 21.0584 123.126 20.6613C123.126 20.5124 123.126 20.3636 123.176 20.1651C123.225 19.9665 123.275 19.8177 123.324 19.6688C123.721 18.9244 124.367 18.2792 125.26 17.7829C126.153 17.2866 127.543 17.0385 128.635 17.0385C129.329 17.0385 129.975 17.0881 130.521 17.237C131.116 17.3859 131.612 17.5844 132.059 17.8822C132.506 18.1799 132.803 18.577 133.052 19.1229C133.3 19.6191 133.399 20.2643 133.399 21.0087V27.8077C133.399 28.1551 133.498 28.4529 133.647 28.6514C133.796 28.8499 134.044 28.9492 134.292 28.9492C134.54 28.9492 134.788 28.8499 134.987 28.701C135.186 28.5521 135.334 28.2544 135.434 27.8574L135.831 28.0062Z" fill="#373B37"/>
<path d="M136.228 20.4132C135.831 19.6688 135.483 19.1229 135.136 18.6763C134.789 18.2792 134.392 18.0807 133.895 18.0807H133.25V17.4852H141.141V18.0807H140.595C140.099 18.0807 139.702 18.18 139.454 18.3785C139.206 18.577 139.057 18.8748 139.057 19.2718C139.057 19.5695 139.156 19.9169 139.354 20.314L142.58 26.716L145.359 20.2643C145.459 20.0162 145.558 19.7681 145.608 19.5695C145.657 19.371 145.707 19.1725 145.707 19.0236C145.707 18.4281 145.31 18.0807 144.466 18.0807H144.168V17.4852H149.776V18.0807H149.131C147.94 18.0807 146.997 18.8748 146.352 20.4629L141.885 30.8847H141.488L136.228 20.4132Z" fill="#373B37"/>
<path d="M157.32 22.0508C157.32 21.5049 157.27 20.959 157.121 20.4627C156.972 19.9665 156.774 19.5198 156.525 19.1228C156.277 18.7258 155.93 18.428 155.533 18.2295C155.136 18.031 154.689 17.8821 154.193 17.8821C153.796 17.8821 153.449 17.9814 153.052 18.1799C152.704 18.3784 152.357 18.6265 152.059 19.0235C151.761 19.3709 151.513 19.8176 151.315 20.3139C151.116 20.8101 151.017 21.4057 150.967 22.0508H157.32ZM154.193 17.0881C154.987 17.0881 155.731 17.2369 156.426 17.4851C157.121 17.7828 157.766 18.1302 158.262 18.6265C158.808 19.1228 159.205 19.7183 159.503 20.4627C159.801 21.1575 159.999 21.9516 159.999 22.8449H150.918V23.2915C150.918 24.1848 151.017 24.9789 151.215 25.7233C151.414 26.4677 151.712 27.0632 152.109 27.6092C152.506 28.1551 152.952 28.5521 153.498 28.8498C154.044 29.1476 154.689 29.2965 155.384 29.2965C156.377 29.2965 157.171 28.9987 157.865 28.4032C158.56 27.8077 159.056 26.964 159.354 25.9218L159.801 26.0211C159.702 26.7655 159.453 27.4603 159.156 28.0558C158.858 28.6513 158.461 29.1972 157.965 29.5943C157.468 30.0409 156.922 30.3387 156.277 30.5868C155.632 30.835 154.987 30.9342 154.243 30.9342C153.25 30.9342 152.357 30.7853 151.563 30.4379C150.769 30.0905 150.074 29.6439 149.478 29.0484C148.883 28.4528 148.436 27.758 148.138 26.9144C147.841 26.0707 147.642 25.1774 147.642 24.1848C147.642 23.1427 147.841 22.1501 148.188 21.2568C148.535 20.3635 149.032 19.6191 149.627 18.9739C150.223 18.3288 150.918 17.8325 151.712 17.4851C152.506 17.2866 153.349 17.0881 154.193 17.0881Z" fill="#373B37"/>
<path d="M29.5285 6.81512V30.8846L0 6.81512L14.7891 0.0161133L29.5285 6.81512Z" fill="#069590"/>
<path d="M14.7891 0.0161133L0 28.8002V6.81512L14.7891 0.0161133Z" fill="#00698F"/>
<path d="M29.5286 6.81517V30.8846L2.28296 30.835L29.5286 6.81517Z" fill="#3BD4AE"/>
</svg>
