<svg width="179" height="40" viewBox="0 0 179 40" fill="none" xmlns="http://www.w3.org/2000/svg">
<g clip-path="url(#clip0_149_459)">
<path d="M41.8135 32.2143L52.0617 9.16286H57.3344L67.6827 32.2143H62.0811L53.6115 11.8629H55.7532L47.2836 32.2143H41.8135ZM46.9862 27.2743L48.3387 23.2229H60.2682L61.6522 27.2743H46.9862Z" fill="#444444"/>
<path d="M75.5262 32.4772C74.0107 32.4772 72.561 32.2971 71.177 31.9343C69.793 31.5714 68.6836 31.1171 67.8486 30.5686L69.53 26.9143C70.3649 27.3972 71.3371 27.7972 72.4466 28.1172C73.556 28.4372 74.6483 28.5943 75.7263 28.5943C76.913 28.5943 77.7537 28.4514 78.2484 28.1657C78.743 27.88 78.9889 27.4857 78.9889 26.98C78.9889 26.5629 78.7974 26.2514 78.4113 26.0429C78.0253 25.8343 77.5221 25.6743 76.8959 25.5657C76.2696 25.4572 75.5719 25.3457 74.8028 25.2371C74.0336 25.1286 73.2701 24.9743 72.5124 24.7772C71.7546 24.58 71.0512 24.3 70.4021 23.9371C69.753 23.5743 69.2383 23.0772 68.8523 22.44C68.4663 21.8029 68.2747 20.98 68.2747 19.9714C68.2747 18.8514 68.6035 17.86 69.2641 16.9914C69.9246 16.1257 70.8567 15.4486 72.0663 14.9657C73.273 14.4829 74.737 14.24 76.4498 14.24C77.6793 14.24 78.9146 14.3771 80.1585 14.6514C81.3994 14.9257 82.4489 15.3057 83.3067 15.7886L81.5596 19.4429C80.7246 18.96 79.8725 18.62 79.0061 18.4229C78.1368 18.2257 77.3076 18.1257 76.5184 18.1257C75.3317 18.1257 74.4739 18.28 73.9478 18.5857C73.4216 18.8943 73.1557 19.2886 73.1557 19.7714C73.1557 20.2114 73.353 20.5457 73.7476 20.7772C74.1422 21.0086 74.6598 21.1772 75.2974 21.2886C75.9351 21.4 76.6385 21.5086 77.4077 21.6172C78.1769 21.7286 78.9346 21.88 79.6809 22.0771C80.4272 22.2743 81.1249 22.5543 81.774 22.9171C82.4231 23.28 82.9378 23.78 83.3238 24.4143C83.707 25.0514 83.9014 25.8743 83.9014 26.8829C83.9014 27.96 83.5726 28.92 82.9121 29.7629C82.2516 30.6086 81.3022 31.2714 80.0612 31.7543C78.8202 32.2372 77.3105 32.48 75.5291 32.48L75.5262 32.4772Z" fill="#444444"/>
<path d="M92.9945 32.4772C91.479 32.4772 90.0292 32.2971 88.6453 31.9343C87.2613 31.5714 86.1518 31.1171 85.3169 30.5686L86.9982 26.9143C87.8332 27.3972 88.8054 27.7972 89.9149 28.1172C91.0243 28.4372 92.1166 28.5943 93.1946 28.5943C94.3813 28.5943 95.2219 28.4514 95.7166 28.1657C96.2113 27.88 96.4572 27.4857 96.4572 26.98C96.4572 26.5629 96.2656 26.2514 95.8796 26.0429C95.4936 25.8343 94.9903 25.6743 94.3641 25.5657C93.7379 25.4572 93.0402 25.3457 92.271 25.2371C91.5018 25.1286 90.7384 24.9743 89.9806 24.7772C89.2229 24.58 88.5194 24.3 87.8704 23.9371C87.2213 23.5743 86.7066 23.0772 86.3206 22.44C85.9345 21.8029 85.7429 20.98 85.7429 19.9714C85.7429 18.8514 86.0718 17.86 86.7323 16.9914C87.3928 16.1257 88.325 15.4486 89.5345 14.9657C90.7412 14.4829 92.2053 14.24 93.918 14.24C95.1476 14.24 96.3829 14.3771 97.6267 14.6514C98.8677 14.9257 99.9171 15.3057 100.775 15.7886L99.0278 19.4429C98.1929 18.96 97.3408 18.62 96.4744 18.4229C95.6051 18.2257 94.7759 18.1257 93.9867 18.1257C92.8 18.1257 91.9422 18.28 91.4161 18.5857C90.8899 18.8943 90.624 19.2886 90.624 19.7714C90.624 20.2114 90.8213 20.5457 91.2159 20.7772C91.6105 21.0086 92.128 21.1772 92.7657 21.2886C93.4034 21.4 94.1068 21.5086 94.8759 21.6172C95.6451 21.7286 96.4029 21.88 97.1492 22.0771C97.8955 22.2743 98.5932 22.5543 99.2423 22.9171C99.8914 23.28 100.406 23.78 100.792 24.4143C101.175 25.0514 101.37 25.8743 101.37 26.8829C101.37 27.96 101.041 28.92 100.38 29.7629C99.7198 30.6086 98.7705 31.2714 97.5295 31.7543C96.2885 32.2372 94.7787 32.48 92.9973 32.48L92.9945 32.4772Z" fill="#444444"/>
<path d="M111.978 32.4772C110.483 32.4772 109.165 32.1914 108.024 31.62C106.88 31.0486 105.991 30.1714 105.353 28.9857C104.715 27.8 104.398 26.3086 104.398 24.5057V14.4943H109.539V23.7143C109.539 25.2086 109.851 26.3 110.477 26.9914C111.103 27.6829 111.987 28.0286 113.131 28.0286C113.923 28.0286 114.623 27.8543 115.241 27.5029C115.856 27.1514 116.345 26.6257 116.708 25.9229C117.071 25.22 117.251 24.3429 117.251 23.2886V14.4971H122.358V32.2143H117.48V27.3086L118.369 28.7571C117.754 29.9857 116.874 30.9143 115.733 31.54C114.589 32.1657 113.337 32.4772 111.975 32.4772H111.978Z" fill="#444444"/>
<path d="M127.104 32.2143V14.4971H132.014V19.5343L131.322 18.0514C131.848 16.8 132.695 15.8514 133.858 15.2029C135.022 14.5543 136.441 14.2314 138.11 14.2314V19.0057C137.913 18.9629 137.719 18.9286 137.533 18.9057C137.347 18.8829 137.164 18.8743 136.99 18.8743C135.54 18.8743 134.387 19.28 133.53 20.0914C132.672 20.9029 132.246 22.1543 132.246 23.8457V32.2086H127.104V32.2143Z" fill="#444444"/>
<path d="M143.549 12.0257C142.583 12.0257 141.802 11.7514 141.21 11.2029C140.618 10.6543 140.321 9.97429 140.321 9.16C140.321 8.34572 140.618 7.66858 141.21 7.11715C141.802 6.56858 142.583 6.29429 143.549 6.29429C144.516 6.29429 145.268 6.55143 145.874 7.06857C146.477 7.58571 146.78 8.24857 146.78 9.06C146.78 9.91714 146.483 10.6257 145.891 11.1829C145.299 11.7429 144.518 12.0229 143.552 12.0229L143.549 12.0257ZM140.978 32.2114V14.4943H146.12V32.2114H140.978Z" fill="#444444"/>
<path d="M148.13 18.8429V14.8914H160.423V18.8429H148.13ZM150.866 32.2114V14.1C150.866 12.08 151.458 10.4771 152.645 9.29143C153.832 8.10571 155.522 7.51429 157.72 7.51429C158.447 7.51429 159.159 7.59143 159.862 7.74571C160.566 7.9 161.157 8.13143 161.641 8.43715L160.288 12.1914C160.002 11.9943 159.685 11.84 159.333 11.7314C158.981 11.6229 158.607 11.5657 158.212 11.5657C157.466 11.5657 156.888 11.7743 156.482 12.1914C156.076 12.6086 155.873 13.2686 155.873 14.1686V15.8143L156.039 17.9886V32.2143H150.866V32.2114ZM165.695 12.0257C164.729 12.0257 163.948 11.7514 163.356 11.2029C162.764 10.6543 162.467 9.97429 162.467 9.16C162.467 8.34572 162.764 7.66858 163.356 7.11715C163.948 6.56858 164.729 6.29429 165.695 6.29429C166.662 6.29429 167.414 6.55143 168.017 7.06857C168.621 7.58571 168.924 8.24857 168.924 9.06C168.924 9.91714 168.626 10.6257 168.034 11.1829C167.442 11.7429 166.662 12.0229 165.695 12.0229V12.0257ZM163.125 32.2114V14.4943H168.266V32.2114H163.125Z" fill="#444444"/>
<path d="M175.615 12.0257C174.648 12.0257 173.867 11.7514 173.276 11.2029C172.684 10.6543 172.386 9.97429 172.386 9.16C172.386 8.34572 172.684 7.66858 173.276 7.11715C173.867 6.56858 174.648 6.29429 175.615 6.29429C176.581 6.29429 177.333 6.55143 177.939 7.06857C178.543 7.58571 178.846 8.24857 178.846 9.06C178.846 9.91714 178.548 10.6257 177.956 11.1829C177.364 11.7429 176.584 12.0229 175.617 12.0229L175.615 12.0257ZM173.044 32.2114V14.4943H178.185V32.2114H173.044Z" fill="#444444"/>
<path d="M18.1487 0.068573C18.1487 0.068573 15.1291 0.677144 8.58106 2.36286C2.39327 3.95714 0.222962 4.59428 0.222962 4.59428C0.222962 4.59428 -0.0972919 10.9686 2.71066 22.5057C4.97533 31.82 13.4278 36.9743 18.1487 39.8943C22.8696 36.9743 31.3192 31.82 33.5867 22.5057C36.3947 10.9686 36.0744 4.59428 36.0744 4.59428C36.0744 4.59428 33.9041 3.95714 27.7163 2.36286C21.1654 0.677144 18.1487 0.068573 18.1487 0.068573Z" fill="#3498DB"/>
<path d="M8.63267 18.2086C10.8945 18.3143 12.673 19.4371 14.0427 21.2886C14.2143 21.52 14.3658 21.7657 14.5288 22.0029C14.7947 22.3886 14.9348 22.3914 15.1808 21.9886C15.8756 20.8571 16.599 19.7457 17.3825 18.6743C20.6394 14.2171 24.7026 10.6228 29.292 7.59714C29.4979 7.46285 29.7238 7.28571 29.9411 7.54571C30.1699 7.81999 29.9497 8.03142 29.7781 8.21999C27.8223 10.38 25.9751 12.6314 24.2394 14.9743C20.7652 19.66 17.8057 24.6457 15.4352 29.9771C15.3437 30.1857 15.278 30.44 14.992 30.4486C14.6746 30.46 14.6117 30.1828 14.5231 29.96C13.2363 26.7314 11.6637 23.66 9.52767 20.9C9.03299 20.2628 8.49542 19.6571 7.98072 19.0371C7.83775 18.8657 7.60042 18.7286 7.70336 18.4543C7.81487 18.1571 8.09224 18.2114 8.33529 18.2028C8.40677 18.2028 8.47826 18.2028 8.63839 18.2028L8.63267 18.2086Z" fill="white"/>
</g>
<defs>
<clipPath id="clip0_149_459">
<rect width="179" height="40" fill="white"/>
</clipPath>
</defs>
</svg>
