<svg width="673" height="184" viewBox="0 0 673 184" fill="none" xmlns="http://www.w3.org/2000/svg">
<path d="M306.25 176.75V116.49H312.609V176.75H306.25ZM311.93 148.94V143.34H350.889V148.94H311.93ZM350.289 176.75V116.49H356.569V176.75H350.289Z" fill="#6D6C6C"/>
<path d="M393.279 177.18C388.859 177.18 384.939 176.19 381.499 174.21C378.059 172.23 375.339 169.49 373.329 165.99C371.319 162.49 370.319 158.53 370.319 154.11C370.319 149.69 371.319 145.59 373.329 142.14C375.339 138.7 378.059 136 381.499 134.05C384.939 132.1 388.869 131.12 393.279 131.12C397.689 131.12 401.719 132.11 405.189 134.09C408.659 136.07 411.379 138.77 413.359 142.18C415.339 145.6 416.329 149.57 416.329 154.1C416.329 158.63 415.339 162.55 413.359 166.02C411.379 169.49 408.639 172.22 405.149 174.2C401.649 176.18 397.699 177.17 393.279 177.17V177.18ZM393.279 171.76C396.549 171.76 399.439 171.03 401.969 169.56C404.489 168.1 406.489 166.03 407.949 163.36C409.409 160.69 410.139 157.61 410.139 154.11C410.139 150.61 409.409 147.45 407.949 144.81C406.489 142.17 404.499 140.12 401.969 138.65C399.449 137.19 396.579 136.45 393.369 136.45C390.159 136.45 387.289 137.18 384.769 138.65C382.249 140.11 380.239 142.17 378.749 144.81C377.259 147.45 376.509 150.55 376.509 154.11C376.509 157.67 377.249 160.69 378.749 163.36C380.239 166.03 382.229 168.1 384.729 169.56C387.219 171.02 390.079 171.76 393.289 171.76H393.279Z" fill="#6D6C6C"/>
<path d="M428.799 176.75V131.55H434.649V143.77L433.699 141.62C435.079 138.35 437.299 135.78 440.369 133.91C443.439 132.05 447.059 131.11 451.249 131.11C455.659 131.11 459.419 132.22 462.519 134.42C465.619 136.63 467.619 139.94 468.539 144.36L466.129 143.41C467.449 139.74 469.779 136.77 473.139 134.5C476.489 132.23 480.519 131.1 485.219 131.1C488.889 131.1 492.089 131.8 494.809 133.21C497.529 134.62 499.649 136.75 501.169 139.62C502.689 142.49 503.449 146.11 503.449 150.47V176.73H497.339V151.08C497.339 146.32 496.209 142.72 493.939 140.28C491.669 137.84 488.479 136.62 484.349 136.62C481.249 136.62 478.569 137.27 476.309 138.56C474.039 139.85 472.299 141.72 471.059 144.15C469.829 146.59 469.209 149.53 469.209 152.97V176.73H463.099V151.08C463.099 146.32 461.949 142.72 459.659 140.28C457.369 137.84 454.159 136.62 450.029 136.62C446.989 136.62 444.319 137.27 442.029 138.56C439.739 139.85 437.969 141.72 436.739 144.15C435.509 146.59 434.889 149.53 434.889 152.97V176.73H428.779L428.799 176.75Z" fill="#6D6C6C"/>
<path d="M539.219 177.18C534.519 177.18 530.389 176.19 526.839 174.21C523.279 172.23 520.499 169.5 518.499 166.03C516.489 162.56 515.489 158.58 515.489 154.11C515.489 149.64 516.449 145.67 518.369 142.23C520.289 138.79 522.929 136.07 526.279 134.1C529.629 132.12 533.399 131.13 537.589 131.13C541.779 131.13 545.599 132.09 548.899 134.01C552.199 135.93 554.789 138.63 556.679 142.1C558.569 145.57 559.519 149.58 559.519 154.11C559.519 154.4 559.509 154.7 559.479 155.01C559.449 155.33 559.439 155.66 559.439 156H520.139V151.44H556.169L553.759 153.25C553.759 149.98 553.059 147.07 551.649 144.51C550.239 141.96 548.339 139.96 545.929 138.53C543.519 137.1 540.739 136.38 537.589 136.38C534.439 136.38 531.709 137.1 529.249 138.53C526.779 139.97 524.859 141.97 523.489 144.56C522.109 147.14 521.429 150.1 521.429 153.43V154.38C521.429 157.82 522.189 160.85 523.709 163.46C525.229 166.07 527.349 168.11 530.069 169.57C532.789 171.03 535.899 171.77 539.399 171.77C542.149 171.77 544.719 171.28 547.099 170.31C549.479 169.34 551.529 167.84 553.249 165.83L556.689 169.79C554.679 172.2 552.169 174.04 549.159 175.3C546.149 176.56 542.839 177.19 539.229 177.19L539.219 177.18Z" fill="#6D6C6C"/>
<path d="M193.719 90.72L229.559 10.04H247.999L284.189 90.72H264.599L234.979 19.49H242.469L212.849 90.72H193.719ZM211.809 73.43L216.539 59.25H258.259L263.099 73.43H211.809Z" fill="#444444"/>
<path d="M311.629 91.6401C306.329 91.6401 301.259 91.0101 296.419 89.7401C291.579 88.4701 287.699 86.8801 284.779 84.9601L290.659 72.1701C293.579 73.8601 296.979 75.2601 300.859 76.3801C304.739 77.5001 308.559 78.0501 312.329 78.0501C316.479 78.0501 319.419 77.5501 321.149 76.5501C322.879 75.5501 323.739 74.1701 323.739 72.4001C323.739 70.9401 323.069 69.8501 321.719 69.1201C320.369 68.3901 318.609 67.8301 316.419 67.4501C314.229 67.0701 311.789 66.6801 309.099 66.3001C306.409 65.9201 303.739 65.3801 301.089 64.6901C298.439 64.0001 295.979 63.0201 293.709 61.7501C291.439 60.4801 289.639 58.7401 288.289 56.5101C286.939 54.2801 286.269 51.4001 286.269 47.8701C286.269 43.9501 287.419 40.4801 289.729 37.4401C292.039 34.4101 295.299 32.0401 299.529 30.3501C303.749 28.6601 308.869 27.8101 314.859 27.8101C319.159 27.8101 323.479 28.2901 327.829 29.2501C332.169 30.2101 335.839 31.5401 338.839 33.2301L332.729 46.0201C329.809 44.3301 326.829 43.1401 323.799 42.4501C320.759 41.7601 317.859 41.4101 315.099 41.4101C310.949 41.4101 307.949 41.9501 306.109 43.0201C304.269 44.1001 303.339 45.4801 303.339 47.1701C303.339 48.7101 304.029 49.8801 305.409 50.6901C306.789 51.5001 308.599 52.0901 310.829 52.4801C313.059 52.8701 315.519 53.2501 318.209 53.6301C320.899 54.0201 323.549 54.5501 326.159 55.2401C328.769 55.9301 331.209 56.9101 333.479 58.1801C335.749 59.4501 337.549 61.2001 338.899 63.4201C340.239 65.6501 340.919 68.5301 340.919 72.0601C340.919 75.8301 339.769 79.1901 337.459 82.1401C335.149 85.1001 331.829 87.4201 327.489 89.1101C323.149 90.8001 317.869 91.6501 311.639 91.6501L311.629 91.6401Z" fill="#444444"/>
<path d="M372.709 91.6401C367.409 91.6401 362.339 91.0101 357.499 89.7401C352.659 88.4701 348.779 86.8801 345.859 84.9601L351.739 72.1701C354.659 73.8601 358.059 75.2601 361.939 76.3801C365.819 77.5001 369.639 78.0501 373.409 78.0501C377.559 78.0501 380.499 77.5501 382.229 76.5501C383.959 75.5501 384.819 74.1701 384.819 72.4001C384.819 70.9401 384.149 69.8501 382.799 69.1201C381.449 68.3901 379.689 67.8301 377.499 67.4501C375.309 67.0701 372.869 66.6801 370.179 66.3001C367.489 65.9201 364.819 65.3801 362.169 64.6901C359.519 64.0001 357.059 63.0201 354.789 61.7501C352.519 60.4801 350.719 58.7401 349.369 56.5101C348.019 54.2801 347.349 51.4001 347.349 47.8701C347.349 43.9501 348.499 40.4801 350.809 37.4401C353.119 34.4101 356.379 32.0401 360.609 30.3501C364.829 28.6601 369.949 27.8101 375.939 27.8101C380.239 27.8101 384.559 28.2901 388.909 29.2501C393.249 30.2101 396.919 31.5401 399.919 33.2301L393.809 46.0201C390.889 44.3301 387.909 43.1401 384.879 42.4501C381.839 41.7601 378.939 41.4101 376.179 41.4101C372.029 41.4101 369.029 41.9501 367.189 43.0201C365.349 44.1001 364.419 45.4801 364.419 47.1701C364.419 48.7101 365.109 49.8801 366.489 50.6901C367.869 51.5001 369.679 52.0901 371.909 52.4801C374.139 52.8701 376.599 53.2501 379.289 53.6301C381.979 54.0201 384.629 54.5501 387.239 55.2401C389.849 55.9301 392.289 56.9101 394.559 58.1801C396.829 59.4501 398.629 61.2001 399.979 63.4201C401.319 65.6501 401.999 68.5301 401.999 72.0601C401.999 75.8301 400.849 79.1901 398.539 82.1401C396.229 85.1001 392.909 87.4201 388.569 89.1101C384.229 90.8001 378.949 91.6501 372.719 91.6501L372.709 91.6401Z" fill="#444444"/>
<path d="M439.099 91.6399C433.869 91.6399 429.259 90.6399 425.269 88.6399C421.269 86.6399 418.159 83.57 415.929 79.42C413.699 75.27 412.589 70.05 412.589 63.74V28.7H430.569V60.97C430.569 66.2 431.659 70.0199 433.849 72.4399C436.039 74.8599 439.129 76.07 443.129 76.07C445.899 76.07 448.349 75.46 450.509 74.23C452.659 73 454.369 71.16 455.639 68.7C456.909 66.24 457.539 63.17 457.539 59.4799V28.71H475.399V90.7199H458.339V73.5499L461.449 78.62C459.299 82.92 456.219 86.1699 452.229 88.3599C448.229 90.5499 443.849 91.6399 439.089 91.6399H439.099Z" fill="#444444"/>
<path d="M491.999 90.72V28.71H509.169V46.34L506.749 41.15C508.589 36.77 511.549 33.45 515.619 31.18C519.689 28.91 524.649 27.78 530.489 27.78V44.49C529.799 44.34 529.119 44.22 528.469 44.14C527.819 44.06 527.179 44.03 526.569 44.03C521.499 44.03 517.469 45.45 514.469 48.29C511.469 51.13 509.979 55.51 509.979 61.43V90.7H491.999V90.72Z" fill="#444444"/>
<path d="M549.509 20.07C546.129 20.07 543.399 19.11 541.329 17.19C539.259 15.27 538.219 12.89 538.219 10.04C538.219 7.19001 539.259 4.82001 541.329 2.89001C543.399 0.970007 546.129 0.0100098 549.509 0.0100098C552.889 0.0100098 555.519 0.910009 557.639 2.72001C559.749 4.53001 560.809 6.85001 560.809 9.69001C560.809 12.69 559.769 15.17 557.699 17.12C555.629 19.08 552.899 20.06 549.519 20.06L549.509 20.07ZM540.519 90.72V28.71H558.499V90.72H540.519Z" fill="#444444"/>
<path d="M565.529 43.92V30.09H608.519V43.92H565.529ZM575.099 90.71V27.32C575.099 20.25 577.169 14.64 581.319 10.49C585.469 6.34 591.379 4.27 599.069 4.27C601.609 4.27 604.099 4.54 606.559 5.08C609.019 5.62 611.089 6.43 612.779 7.5L608.049 20.64C607.049 19.95 605.939 19.41 604.709 19.03C603.479 18.65 602.169 18.45 600.789 18.45C598.179 18.45 596.159 19.18 594.739 20.64C593.319 22.1 592.609 24.41 592.609 27.56V33.32L593.189 40.93V90.72H575.099V90.71ZM626.959 20.06C623.579 20.06 620.849 19.1 618.779 17.18C616.709 15.26 615.669 12.88 615.669 10.03C615.669 7.18 616.709 4.81 618.779 2.88C620.849 0.959997 623.579 0 626.959 0C630.339 0 632.969 0.899999 635.079 2.71C637.189 4.52 638.249 6.84 638.249 9.68C638.249 12.68 637.209 15.16 635.139 17.11C633.069 19.07 630.339 20.05 626.959 20.05V20.06ZM617.969 90.71V28.7H635.949V90.71H617.969Z" fill="#444444"/>
<path d="M661.649 20.07C658.269 20.07 655.539 19.11 653.469 17.19C651.399 15.27 650.359 12.89 650.359 10.04C650.359 7.19001 651.399 4.82001 653.469 2.89001C655.539 0.970007 658.269 0.0100098 661.649 0.0100098C665.029 0.0100098 667.659 0.910009 669.779 2.72001C671.889 4.53001 672.949 6.85001 672.949 9.69001C672.949 12.69 671.909 15.17 669.839 17.12C667.769 19.08 665.039 20.06 661.659 20.06L661.649 20.07ZM652.659 90.72V28.71H670.639V90.72H652.659Z" fill="#444444"/>
<path d="M80.9794 3.72998C80.9794 3.72998 67.3494 6.47998 37.7794 14.1C9.84939 21.3 0.0493958 24.18 0.0493958 24.18C0.0493958 24.18 -1.39061 52.98 11.2794 105.1C21.5094 147.18 59.6594 170.47 80.9694 183.66C102.279 170.47 140.429 147.18 150.659 105.1C163.329 52.97 161.889 24.18 161.889 24.18C161.889 24.18 152.099 21.3 124.159 14.1C94.5894 6.47998 80.9594 3.72998 80.9594 3.72998H80.9794Z" fill="#3498DB"/>
<path d="M38.0092 85.69C48.2192 86.17 56.2492 91.24 62.4292 99.61C63.1992 100.66 63.8892 101.77 64.6192 102.84C65.8192 104.59 66.4492 104.59 67.5592 102.78C70.6892 97.67 73.9592 92.65 77.4992 87.81C92.1992 67.67 110.549 51.44 131.269 37.76C132.199 37.15 133.209 36.35 134.199 37.53C135.239 38.77 134.239 39.72 133.459 40.58C124.629 50.34 116.289 60.52 108.459 71.1C92.7792 92.27 79.4192 114.8 68.7092 138.88C68.2892 139.82 67.9992 140.97 66.6992 141.01C65.2592 141.06 64.9792 139.82 64.5792 138.8C58.7692 124.21 51.6692 110.34 42.0292 97.87C39.7992 94.99 37.3792 92.26 35.0392 89.46C34.3892 88.69 33.3192 88.06 33.7892 86.82C34.2992 85.48 35.5492 85.72 36.6392 85.69C36.9692 85.69 37.2892 85.69 38.0092 85.69Z" fill="white"/>
<path d="M286.799 144.09H195.169V149.57H286.799V144.09Z" fill="#6D6C6C"/>
<path d="M670.6 144.09H578.97V149.57H670.6V144.09Z" fill="#6D6C6C"/>
</svg>
