<?xml version="1.0" encoding="UTF-8"?>
<svg id="Layer_1" data-name="Layer 1" xmlns="http://www.w3.org/2000/svg" viewBox="0 0 841.89 356.94">
  <defs>
    <style>
      .cls-1 {
        opacity: .83;
      }

      .cls-2 {
        fill: #12266d;
      }

      .cls-2, .cls-3, .cls-4 {
        stroke-width: 0px;
      }

      .cls-3 {
        fill: #fff;
      }

      .cls-4 {
        fill: #badafa;
      }
    </style>
  </defs>
  <polygon class="cls-3" points="302.68 124.22 401.34 124.11 446.85 166.33 342.71 167.83 302.68 124.22"/>
  <g>
    <g>
      <path class="cls-2" d="m154.63,208.29c-6.7,0-10.7-18.15-10.7-35.69s4-35.69,10.7-35.69,10.7,18.15,10.7,35.69-4,35.69-10.7,35.69Zm0-69.87c-4.43,0-9.18,13.73-9.18,34.17s4.75,34.17,9.18,34.17,9.18-13.73,9.18-34.17-4.75-34.17-9.18-34.17Z"/>
      <rect class="cls-2" x="153.87" y="156.53" width="1.52" height="84.35"/>
      <rect class="cls-2" x="153.34" y="170.67" width="8.78" height="1.52" transform="translate(-75.02 161.75) rotate(-45)"/>
      <rect class="cls-2" x="151.64" y="163.96" width="1.52" height="5.92" transform="translate(-73.39 156.65) rotate(-45)"/>
      <rect class="cls-2" x="150.99" y="174.57" width="1.52" height="8.59" transform="translate(-82.03 159.69) rotate(-45)"/>
      <rect class="cls-2" x="153.71" y="183.6" width="7.07" height="1.52" transform="translate(-84.31 165.19) rotate(-45)"/>
      <rect class="cls-2" x="152.32" y="189.55" width="1.52" height="4.94" transform="translate(-90.94 164.47) rotate(-45)"/>
    </g>
    <g>
      <path class="cls-2" d="m586.99,270.41h-120.33c-3.92,0-7.12-3.19-7.12-7.12V91.26c0-3.92,3.19-7.12,7.12-7.12h120.33c3.92,0,7.12,3.19,7.12,7.12v172.03c0,3.92-3.19,7.12-7.12,7.12Zm-120.33-183.26c-2.27,0-4.12,1.85-4.12,4.12v172.03c0,2.27,1.85,4.12,4.12,4.12h120.33c2.27,0,4.12-1.85,4.12-4.12V91.26c0-2.27-1.85-4.12-4.12-4.12h-120.33Z"/>
      <g>
        <rect class="cls-3" x="468.72" y="96.34" width="116.21" height="161.87" rx="5.62" ry="5.62"/>
        <path class="cls-2" d="m579.31,259.71h-104.97c-3.92,0-7.12-3.19-7.12-7.12V101.96c0-3.92,3.19-7.12,7.12-7.12h104.97c3.92,0,7.12,3.19,7.12,7.12v150.64c0,3.92-3.19,7.12-7.12,7.12Zm-104.97-161.87c-2.27,0-4.12,1.85-4.12,4.12v150.64c0,2.27,1.85,4.12,4.12,4.12h104.97c2.27,0,4.12-1.85,4.12-4.12V101.96c0-2.27-1.85-4.12-4.12-4.12h-104.97Z"/>
      </g>
      <g>
        <rect class="cls-4" x="492.06" y="83.15" width="72.02" height="15.33"/>
        <path class="cls-2" d="m565.58,99.98h-75.02v-18.33h75.02v18.33Zm-72.02-3h69.02v-12.33h-69.02v12.33Z"/>
      </g>
      <path class="cls-2" d="m553.11,84.65h-46.86v-12.98h46.86v12.98Zm-43.86-3h40.86v-6.98h-40.86v6.98Z"/>
      <g>
        <rect class="cls-3" x="484.1" y="115.09" width="84.02" height="3.21"/>
        <path class="cls-2" d="m568.63,118.8h-85.02v-4.21h85.02v4.21Zm-84.02-1h83.02v-2.21h-83.02v2.21Z"/>
      </g>
      <g>
        <rect class="cls-3" x="484.1" y="132.74" width="84.02" height="3.21"/>
        <path class="cls-2" d="m568.63,136.45h-85.02v-4.21h85.02v4.21Zm-84.02-1h83.02v-2.21h-83.02v2.21Z"/>
      </g>
      <g>
        <rect class="cls-3" x="484.1" y="150.39" width="84.02" height="3.21"/>
        <path class="cls-2" d="m568.63,154.1h-85.02v-4.21h85.02v4.21Zm-84.02-1h83.02v-2.21h-83.02v2.21Z"/>
      </g>
      <g>
        <rect class="cls-3" x="484.1" y="168.04" width="84.02" height="3.21"/>
        <path class="cls-2" d="m568.63,171.75h-85.02v-4.21h85.02v4.21Zm-84.02-1h83.02v-2.21h-83.02v2.21Z"/>
      </g>
      <g>
        <rect class="cls-3" x="484.1" y="185.69" width="84.02" height="3.21"/>
        <path class="cls-2" d="m568.63,189.4h-85.02v-4.21h85.02v4.21Zm-84.02-1h83.02v-2.21h-83.02v2.21Z"/>
      </g>
      <g>
        <rect class="cls-3" x="484.1" y="203.34" width="84.02" height="3.21"/>
        <path class="cls-2" d="m568.63,207.04h-85.02v-4.21h85.02v4.21Zm-84.02-1h83.02v-2.21h-83.02v2.21Z"/>
      </g>
      <g>
        <rect class="cls-3" x="484.1" y="220.99" width="43.47" height="3.21"/>
        <path class="cls-2" d="m528.07,224.69h-44.47v-4.21h44.47v4.21Zm-43.47-1h42.47v-2.21h-42.47v2.21Z"/>
      </g>
    </g>
    <g>
      <path class="cls-3" d="m490.31,280.9c3.11-2.92,5-6.77,5-10.99,0-9.17-8.92-16.6-19.92-16.6s-19.91,7.43-19.91,16.6c0,4.22,1.89,8.07,5,10.99"/>
      <path class="cls-2" d="m459.45,281.99c-3.53-3.31-5.47-7.61-5.47-12.08,0-9.98,9.6-18.1,21.41-18.1s21.42,8.12,21.42,18.1c0,4.48-1.94,8.77-5.47,12.08l-2.05-2.19c2.92-2.74,4.53-6.26,4.53-9.9,0-8.33-8.26-15.1-18.42-15.1s-18.41,6.77-18.41,15.1c0,3.64,1.61,7.16,4.53,9.9l-2.05,2.19Z"/>
    </g>
    <g>
      <path class="cls-2" d="m274.95,164.62c-6.7,0-10.7-18.15-10.7-35.69s4-35.69,10.7-35.69,10.7,18.15,10.7,35.69-4,35.69-10.7,35.69Zm0-69.87c-4.43,0-9.18,13.73-9.18,34.17s4.75,34.17,9.18,34.17,9.18-13.73,9.18-34.17-4.75-34.17-9.18-34.17Z"/>
      <rect class="cls-2" x="274.19" y="112.86" width="1.52" height="84.35"/>
      <rect class="cls-2" x="273.66" y="127" width="8.78" height="1.52" transform="translate(-8.9 234.03) rotate(-45)"/>
      <rect class="cls-2" x="271.95" y="120.29" width="1.52" height="5.92" transform="translate(-7.27 228.94) rotate(-45)"/>
      <rect class="cls-2" x="271.31" y="130.91" width="1.52" height="8.59" transform="translate(-15.91 231.98) rotate(-45)"/>
      <rect class="cls-2" x="274.03" y="139.93" width="7.07" height="1.52" transform="translate(-18.19 237.48) rotate(-45)"/>
      <rect class="cls-2" x="272.64" y="145.88" width="1.52" height="4.94" transform="translate(-24.83 236.75) rotate(-45)"/>
    </g>
    <g>
      <g>
        <path class="cls-4" d="m257.02,165.03c1.16-.77,43.51-40.82,43.51-40.82l43.51,42.74-1.54,112.44h-85.49v-114.37Z"/>
        <path class="cls-2" d="m343.99,280.91h-88.47v-116.67l.64-.42c1.5-1.2,26.71-24.95,43.35-40.68l1.05-.99,45,44.21-1.57,114.57Zm-85.47-3h82.51l1.51-110.32-42.02-41.28c-10.23,9.67-37.3,35.23-42,39.42v112.19Z"/>
      </g>
      <polygon class="cls-2" points="446.75 168.19 399.87 124.86 300.54 124.86 300.54 121.86 401.04 121.86 448.79 165.99 446.75 168.19"/>
      <g>
        <polygon class="cls-4" points="447.25 167.83 448.37 279.45 342.71 279.45 342.71 167.83 447.25 167.83"/>
        <path class="cls-2" d="m449.88,280.95h-108.67v-114.62h107.53l1.15,114.62Zm-105.67-3h102.65l-1.09-108.62h-101.56v108.62Z"/>
      </g>
      <g>
        <rect class="cls-3" x="363.05" y="222.51" width="34.14" height="56.9"/>
        <path class="cls-2" d="m398.19,280.41h-36.14v-58.9h36.14v58.9Zm-34.14-2h32.14v-54.9h-32.14v54.9Z"/>
      </g>
      <g>
        <rect class="cls-3" x="274.95" y="170.14" width="15.23" height="23.68"/>
        <path class="cls-2" d="m291.18,194.82h-17.23v-25.68h17.23v25.68Zm-15.23-2h13.23v-21.68h-13.23v21.68Z"/>
      </g>
      <g>
        <rect class="cls-3" x="307.98" y="170.14" width="15.23" height="23.68"/>
        <path class="cls-2" d="m324.2,194.82h-17.23v-25.68h17.23v25.68Zm-15.23-2h13.23v-21.68h-13.23v21.68Z"/>
      </g>
      <g>
        <rect class="cls-3" x="274.95" y="203.35" width="15.23" height="23.68"/>
        <path class="cls-2" d="m291.18,228.03h-17.23v-25.68h17.23v25.68Zm-15.23-2h13.23v-21.68h-13.23v21.68Z"/>
      </g>
      <g>
        <rect class="cls-3" x="307.98" y="203.35" width="15.23" height="23.68"/>
        <path class="cls-2" d="m324.2,228.03h-17.23v-25.68h17.23v25.68Zm-15.23-2h13.23v-21.68h-13.23v21.68Z"/>
      </g>
      <g>
        <rect class="cls-3" x="274.95" y="236.56" width="15.23" height="23.68"/>
        <path class="cls-2" d="m291.18,261.25h-17.23v-25.68h17.23v25.68Zm-15.23-2h13.23v-21.68h-13.23v21.68Z"/>
      </g>
      <g>
        <rect class="cls-3" x="307.98" y="236.56" width="15.23" height="23.68"/>
        <path class="cls-2" d="m324.2,261.25h-17.23v-25.68h17.23v25.68Zm-15.23-2h13.23v-21.68h-13.23v21.68Z"/>
      </g>
      <polygon class="cls-2" points="360.07 168.54 316.56 124.53 318.68 122.37 362.18 166.38 360.07 168.54"/>
      <polygon class="cls-2" points="376.51 168.54 333.01 124.53 335.13 122.37 378.63 166.38 376.51 168.54"/>
      <polygon class="cls-2" points="392.96 168.54 349.46 124.53 351.57 122.37 395.08 166.38 392.96 168.54"/>
      <polygon class="cls-2" points="409.41 168.54 365.9 124.53 368.02 122.37 411.52 166.38 409.41 168.54"/>
      <polygon class="cls-2" points="425.85 168.54 382.35 124.53 384.47 122.37 427.97 166.38 425.85 168.54"/>
    </g>
    <g class="cls-1">
      <rect class="cls-4" x="135.55" y="221.45" width="50.56" height="8.26"/>
      <rect class="cls-2" x="138.92" y="221.45" width="1" height="8.26"/>
      <rect class="cls-2" x="143.27" y="221.45" width="1" height="8.26"/>
      <rect class="cls-2" x="147.62" y="221.45" width="1" height="8.26"/>
      <rect class="cls-2" x="151.97" y="221.45" width="1" height="8.26"/>
      <rect class="cls-2" x="156.32" y="221.45" width="1" height="8.26"/>
      <rect class="cls-2" x="160.67" y="221.45" width="1" height="8.26"/>
      <rect class="cls-2" x="165.02" y="221.45" width="1" height="8.26"/>
      <rect class="cls-2" x="169.37" y="221.45" width="1" height="8.26"/>
      <rect class="cls-2" x="173.72" y="221.45" width="1" height="8.26"/>
      <rect class="cls-2" x="178.08" y="221.45" width="1" height="8.26"/>
      <rect class="cls-2" x="182.43" y="221.45" width="1" height="8.26"/>
    </g>
    <g class="cls-1">
      <rect class="cls-4" x="134.6" y="238.08" width="50.56" height="8.26"/>
      <rect class="cls-2" x="137.98" y="238.08" width="1" height="8.26"/>
      <rect class="cls-2" x="142.33" y="238.08" width="1" height="8.26"/>
      <rect class="cls-2" x="146.68" y="238.08" width="1" height="8.26"/>
      <rect class="cls-2" x="151.03" y="238.08" width="1" height="8.26"/>
      <rect class="cls-2" x="155.38" y="238.08" width="1" height="8.26"/>
      <rect class="cls-2" x="159.73" y="238.08" width="1" height="8.26"/>
      <rect class="cls-2" x="164.08" y="238.08" width="1" height="8.26"/>
      <rect class="cls-2" x="168.43" y="238.08" width="1" height="8.26"/>
      <rect class="cls-2" x="172.78" y="238.08" width="1" height="8.26"/>
      <rect class="cls-2" x="177.14" y="238.08" width="1" height="8.26"/>
      <rect class="cls-2" x="181.49" y="238.08" width="1" height="8.26"/>
    </g>
    <g class="cls-1">
      <rect class="cls-4" x="132.71" y="254.8" width="50.56" height="8.26"/>
      <rect class="cls-2" x="136.08" y="254.8" width="1" height="8.26"/>
      <rect class="cls-2" x="140.43" y="254.8" width="1" height="8.26"/>
      <rect class="cls-2" x="144.78" y="254.8" width="1" height="8.26"/>
      <rect class="cls-2" x="149.13" y="254.8" width="1" height="8.26"/>
      <rect class="cls-2" x="153.48" y="254.8" width="1" height="8.26"/>
      <rect class="cls-2" x="157.84" y="254.8" width="1" height="8.26"/>
      <rect class="cls-2" x="162.19" y="254.8" width="1" height="8.26"/>
      <rect class="cls-2" x="166.54" y="254.8" width="1" height="8.26"/>
      <rect class="cls-2" x="170.89" y="254.8" width="1" height="8.26"/>
      <rect class="cls-2" x="175.24" y="254.8" width="1" height="8.26"/>
      <rect class="cls-2" x="179.59" y="254.8" width="1" height="8.26"/>
    </g>
    <g class="cls-1">
      <rect class="cls-4" x="188.39" y="262.96" width="50.56" height="8.26"/>
      <rect class="cls-2" x="191.76" y="262.96" width="1" height="8.26"/>
      <rect class="cls-2" x="196.11" y="262.96" width="1" height="8.26"/>
      <rect class="cls-2" x="200.46" y="262.96" width="1" height="8.26"/>
      <rect class="cls-2" x="204.81" y="262.96" width="1" height="8.26"/>
      <rect class="cls-2" x="209.16" y="262.96" width="1" height="8.26"/>
      <rect class="cls-2" x="213.51" y="262.96" width="1" height="8.26"/>
      <rect class="cls-2" x="217.87" y="262.96" width="1" height="8.26"/>
      <rect class="cls-2" x="222.22" y="262.96" width="1" height="8.26"/>
      <rect class="cls-2" x="226.57" y="262.96" width="1" height="8.26"/>
      <rect class="cls-2" x="230.92" y="262.96" width="1" height="8.26"/>
      <rect class="cls-2" x="235.27" y="262.96" width="1" height="8.26"/>
    </g>
    <g class="cls-1">
      <rect class="cls-4" x="132.36" y="271.43" width="50.56" height="8.26"/>
      <rect class="cls-2" x="135.74" y="271.43" width="1" height="8.26"/>
      <rect class="cls-2" x="140.09" y="271.43" width="1" height="8.26"/>
      <rect class="cls-2" x="144.44" y="271.43" width="1" height="8.26"/>
      <rect class="cls-2" x="148.79" y="271.43" width="1" height="8.26"/>
      <rect class="cls-2" x="153.14" y="271.43" width="1" height="8.26"/>
      <rect class="cls-2" x="157.49" y="271.43" width="1" height="8.26"/>
      <rect class="cls-2" x="161.84" y="271.43" width="1" height="8.26"/>
      <rect class="cls-2" x="166.19" y="271.43" width="1" height="8.26"/>
      <rect class="cls-2" x="170.54" y="271.43" width="1" height="8.26"/>
      <rect class="cls-2" x="174.89" y="271.43" width="1" height="8.26"/>
      <rect class="cls-2" x="179.24" y="271.43" width="1" height="8.26"/>
    </g>
    <g class="cls-1">
      <rect class="cls-2" x="138.19" y="229.71" width="50.56" height="8.47"/>
      <rect class="cls-3" x="141.64" y="229.82" width="1" height="8.26"/>
      <rect class="cls-3" x="145.99" y="229.82" width="1" height="8.26"/>
      <rect class="cls-3" x="150.34" y="229.82" width="1" height="8.26"/>
      <rect class="cls-3" x="154.69" y="229.82" width="1" height="8.26"/>
      <rect class="cls-3" x="159.04" y="229.82" width="1" height="8.26"/>
      <rect class="cls-3" x="163.39" y="229.82" width="1" height="8.26"/>
      <rect class="cls-3" x="167.74" y="229.82" width="1" height="8.26"/>
      <rect class="cls-3" x="172.09" y="229.82" width="1" height="8.26"/>
      <rect class="cls-3" x="176.44" y="229.82" width="1" height="8.26"/>
      <rect class="cls-3" x="180.8" y="229.82" width="1" height="8.26"/>
      <rect class="cls-3" x="185.15" y="229.82" width="1" height="8.26"/>
    </g>
    <g class="cls-1">
      <rect class="cls-2" x="138.13" y="246.34" width="50.56" height="8.47"/>
      <rect class="cls-3" x="141.58" y="246.44" width="1" height="8.26"/>
      <rect class="cls-3" x="145.93" y="246.44" width="1" height="8.26"/>
      <rect class="cls-3" x="150.28" y="246.44" width="1" height="8.26"/>
      <rect class="cls-3" x="154.63" y="246.44" width="1" height="8.26"/>
      <rect class="cls-3" x="158.98" y="246.44" width="1" height="8.26"/>
      <rect class="cls-3" x="163.33" y="246.44" width="1" height="8.26"/>
      <rect class="cls-3" x="167.68" y="246.44" width="1" height="8.26"/>
      <rect class="cls-3" x="172.03" y="246.44" width="1" height="8.26"/>
      <rect class="cls-3" x="176.39" y="246.44" width="1" height="8.26"/>
      <rect class="cls-3" x="180.74" y="246.44" width="1" height="8.26"/>
      <rect class="cls-3" x="185.09" y="246.44" width="1" height="8.26"/>
    </g>
    <g class="cls-1">
      <rect class="cls-2" x="183.27" y="254.7" width="50.56" height="8.47"/>
      <rect class="cls-3" x="186.72" y="254.8" width="1" height="8.26"/>
      <rect class="cls-3" x="191.07" y="254.8" width="1" height="8.26"/>
      <rect class="cls-3" x="195.42" y="254.8" width="1" height="8.26"/>
      <rect class="cls-3" x="199.77" y="254.8" width="1" height="8.26"/>
      <rect class="cls-3" x="204.12" y="254.8" width="1" height="8.26"/>
      <rect class="cls-3" x="208.47" y="254.8" width="1" height="8.26"/>
      <rect class="cls-3" x="212.82" y="254.8" width="1" height="8.26"/>
      <rect class="cls-3" x="217.17" y="254.8" width="1" height="8.26"/>
      <rect class="cls-3" x="221.53" y="254.8" width="1" height="8.26"/>
      <rect class="cls-3" x="225.88" y="254.8" width="1" height="8.26"/>
      <rect class="cls-3" x="230.23" y="254.8" width="1" height="8.26"/>
    </g>
    <g class="cls-1">
      <rect class="cls-2" x="182.93" y="271.33" width="50.56" height="8.47"/>
      <rect class="cls-3" x="186.37" y="271.43" width="1" height="8.26"/>
      <rect class="cls-3" x="190.72" y="271.43" width="1" height="8.26"/>
      <rect class="cls-3" x="195.07" y="271.43" width="1" height="8.26"/>
      <rect class="cls-3" x="199.43" y="271.43" width="1" height="8.26"/>
      <rect class="cls-3" x="203.78" y="271.43" width="1" height="8.26"/>
      <rect class="cls-3" x="208.13" y="271.43" width="1" height="8.26"/>
      <rect class="cls-3" x="212.48" y="271.43" width="1" height="8.26"/>
      <rect class="cls-3" x="216.83" y="271.43" width="1" height="8.26"/>
      <rect class="cls-3" x="221.18" y="271.43" width="1" height="8.26"/>
      <rect class="cls-3" x="225.53" y="271.43" width="1" height="8.26"/>
      <rect class="cls-3" x="229.88" y="271.43" width="1" height="8.26"/>
    </g>
    <g class="cls-1">
      <rect class="cls-2" x="137.75" y="263.07" width="50.56" height="8.47"/>
      <rect class="cls-3" x="141.2" y="263.17" width="1" height="8.26"/>
      <rect class="cls-3" x="145.55" y="263.17" width="1" height="8.26"/>
      <rect class="cls-3" x="149.9" y="263.17" width="1" height="8.26"/>
      <rect class="cls-3" x="154.25" y="263.17" width="1" height="8.26"/>
      <rect class="cls-3" x="158.6" y="263.17" width="1" height="8.26"/>
      <rect class="cls-3" x="162.95" y="263.17" width="1" height="8.26"/>
      <rect class="cls-3" x="167.3" y="263.17" width="1" height="8.26"/>
      <rect class="cls-3" x="171.65" y="263.17" width="1" height="8.26"/>
      <rect class="cls-3" x="176" y="263.17" width="1" height="8.26"/>
      <rect class="cls-3" x="180.35" y="263.17" width="1" height="8.26"/>
      <rect class="cls-3" x="184.71" y="263.17" width="1" height="8.26"/>
    </g>
    <g>
      <path class="cls-2" d="m622.4,207.78c-6.7,0-10.7-18.15-10.7-35.69s4-35.69,10.7-35.69,10.7,18.15,10.7,35.69-4,35.69-10.7,35.69Zm0-69.87c-4.43,0-9.18,13.73-9.18,34.17s4.75,34.17,9.18,34.17,9.18-13.73,9.18-34.17-4.75-34.17-9.18-34.17Z"/>
      <rect class="cls-2" x="621.64" y="156.03" width="1.52" height="84.35"/>
      <rect class="cls-2" x="621.11" y="170.16" width="8.78" height="1.52" transform="translate(62.35 492.36) rotate(-45)"/>
      <rect class="cls-2" x="619.4" y="163.45" width="1.52" height="5.92" transform="translate(63.97 487.26) rotate(-45)"/>
      <rect class="cls-2" x="618.76" y="174.07" width="1.52" height="8.59" transform="translate(55.33 490.3) rotate(-45)"/>
      <rect class="cls-2" x="621.48" y="183.09" width="7.07" height="1.52" transform="translate(53.06 495.8) rotate(-45)"/>
      <rect class="cls-2" x="620.08" y="189.04" width="1.52" height="4.94" transform="translate(46.4 495.05) rotate(-45)"/>
    </g>
    <g class="cls-1">
      <rect class="cls-4" x="603.31" y="220.94" width="50.56" height="8.26"/>
      <rect class="cls-2" x="606.68" y="220.94" width="1" height="8.26"/>
      <rect class="cls-2" x="611.04" y="220.94" width="1" height="8.26"/>
      <rect class="cls-2" x="615.39" y="220.94" width="1" height="8.26"/>
      <rect class="cls-2" x="619.74" y="220.94" width="1" height="8.26"/>
      <rect class="cls-2" x="624.09" y="220.94" width="1" height="8.26"/>
      <rect class="cls-2" x="628.44" y="220.94" width="1" height="8.26"/>
      <rect class="cls-2" x="632.79" y="220.94" width="1" height="8.26"/>
      <rect class="cls-2" x="637.14" y="220.94" width="1" height="8.26"/>
      <rect class="cls-2" x="641.49" y="220.94" width="1" height="8.26"/>
      <rect class="cls-2" x="645.84" y="220.94" width="1" height="8.26"/>
      <rect class="cls-2" x="650.19" y="220.94" width="1" height="8.26"/>
    </g>
    <g class="cls-1">
      <rect class="cls-4" x="602.37" y="237.57" width="50.56" height="8.26"/>
      <rect class="cls-2" x="605.74" y="237.57" width="1" height="8.26"/>
      <rect class="cls-2" x="610.1" y="237.57" width="1" height="8.26"/>
      <rect class="cls-2" x="614.45" y="237.57" width="1" height="8.26"/>
      <rect class="cls-2" x="618.8" y="237.57" width="1" height="8.26"/>
      <rect class="cls-2" x="623.15" y="237.57" width="1" height="8.26"/>
      <rect class="cls-2" x="627.5" y="237.57" width="1" height="8.26"/>
      <rect class="cls-2" x="631.85" y="237.57" width="1" height="8.26"/>
      <rect class="cls-2" x="636.2" y="237.57" width="1" height="8.26"/>
      <rect class="cls-2" x="640.55" y="237.57" width="1" height="8.26"/>
      <rect class="cls-2" x="644.9" y="237.57" width="1" height="8.26"/>
      <rect class="cls-2" x="649.25" y="237.57" width="1" height="8.26"/>
    </g>
    <g class="cls-1">
      <rect class="cls-4" x="600.48" y="254.3" width="50.56" height="8.26"/>
      <rect class="cls-2" x="603.85" y="254.3" width="1" height="8.26"/>
      <rect class="cls-2" x="608.2" y="254.3" width="1" height="8.26"/>
      <rect class="cls-2" x="612.55" y="254.3" width="1" height="8.26"/>
      <rect class="cls-2" x="616.9" y="254.3" width="1" height="8.26"/>
      <rect class="cls-2" x="621.25" y="254.3" width="1" height="8.26"/>
      <rect class="cls-2" x="625.6" y="254.3" width="1" height="8.26"/>
      <rect class="cls-2" x="629.95" y="254.3" width="1" height="8.26"/>
      <rect class="cls-2" x="634.3" y="254.3" width="1" height="8.26"/>
      <rect class="cls-2" x="638.66" y="254.3" width="1" height="8.26"/>
      <rect class="cls-2" x="643.01" y="254.3" width="1" height="8.26"/>
      <rect class="cls-2" x="647.36" y="254.3" width="1" height="8.26"/>
    </g>
    <g class="cls-1">
      <rect class="cls-4" x="656.15" y="262.45" width="50.56" height="8.26"/>
      <rect class="cls-2" x="659.53" y="262.45" width="1" height="8.26"/>
      <rect class="cls-2" x="663.88" y="262.45" width="1" height="8.26"/>
      <rect class="cls-2" x="668.23" y="262.45" width="1" height="8.26"/>
      <rect class="cls-2" x="672.58" y="262.45" width="1" height="8.26"/>
      <rect class="cls-2" x="676.93" y="262.45" width="1" height="8.26"/>
      <rect class="cls-2" x="681.28" y="262.45" width="1" height="8.26"/>
      <rect class="cls-2" x="685.63" y="262.45" width="1" height="8.26"/>
      <rect class="cls-2" x="689.98" y="262.45" width="1" height="8.26"/>
      <rect class="cls-2" x="694.33" y="262.45" width="1" height="8.26"/>
      <rect class="cls-2" x="698.68" y="262.45" width="1" height="8.26"/>
      <rect class="cls-2" x="703.04" y="262.45" width="1" height="8.26"/>
    </g>
    <g class="cls-1">
      <rect class="cls-4" x="600.13" y="270.92" width="50.56" height="8.26"/>
      <rect class="cls-2" x="603.5" y="270.92" width="1" height="8.26"/>
      <rect class="cls-2" x="607.85" y="270.92" width="1" height="8.26"/>
      <rect class="cls-2" x="612.2" y="270.92" width="1" height="8.26"/>
      <rect class="cls-2" x="616.56" y="270.92" width="1" height="8.26"/>
      <rect class="cls-2" x="620.91" y="270.92" width="1" height="8.26"/>
      <rect class="cls-2" x="625.26" y="270.92" width="1" height="8.26"/>
      <rect class="cls-2" x="629.61" y="270.92" width="1" height="8.26"/>
      <rect class="cls-2" x="633.96" y="270.92" width="1" height="8.26"/>
      <rect class="cls-2" x="638.31" y="270.92" width="1" height="8.26"/>
      <rect class="cls-2" x="642.66" y="270.92" width="1" height="8.26"/>
      <rect class="cls-2" x="647.01" y="270.92" width="1" height="8.26"/>
    </g>
    <g class="cls-1">
      <rect class="cls-2" x="605.96" y="229.21" width="50.56" height="8.47"/>
      <rect class="cls-3" x="609.4" y="229.31" width="1" height="8.26"/>
      <rect class="cls-3" x="613.76" y="229.31" width="1" height="8.26"/>
      <rect class="cls-3" x="618.11" y="229.31" width="1" height="8.26"/>
      <rect class="cls-3" x="622.46" y="229.31" width="1" height="8.26"/>
      <rect class="cls-3" x="626.81" y="229.31" width="1" height="8.26"/>
      <rect class="cls-3" x="631.16" y="229.31" width="1" height="8.26"/>
      <rect class="cls-3" x="635.51" y="229.31" width="1" height="8.26"/>
      <rect class="cls-3" x="639.86" y="229.31" width="1" height="8.26"/>
      <rect class="cls-3" x="644.21" y="229.31" width="1" height="8.26"/>
      <rect class="cls-3" x="648.56" y="229.31" width="1" height="8.26"/>
      <rect class="cls-3" x="652.91" y="229.31" width="1" height="8.26"/>
    </g>
    <g class="cls-1">
      <rect class="cls-2" x="605.9" y="245.83" width="50.56" height="8.47"/>
      <rect class="cls-3" x="609.35" y="245.93" width="1" height="8.26"/>
      <rect class="cls-3" x="613.7" y="245.93" width="1" height="8.26"/>
      <rect class="cls-3" x="618.05" y="245.93" width="1" height="8.26"/>
      <rect class="cls-3" x="622.4" y="245.93" width="1" height="8.26"/>
      <rect class="cls-3" x="626.75" y="245.93" width="1" height="8.26"/>
      <rect class="cls-3" x="631.1" y="245.93" width="1" height="8.26"/>
      <rect class="cls-3" x="635.45" y="245.93" width="1" height="8.26"/>
      <rect class="cls-3" x="639.8" y="245.93" width="1" height="8.26"/>
      <rect class="cls-3" x="644.15" y="245.93" width="1" height="8.26"/>
      <rect class="cls-3" x="648.5" y="245.93" width="1" height="8.26"/>
      <rect class="cls-3" x="652.85" y="245.93" width="1" height="8.26"/>
    </g>
    <g class="cls-1">
      <rect class="cls-2" x="651.04" y="254.19" width="50.56" height="8.47"/>
      <rect class="cls-3" x="654.49" y="254.3" width="1" height="8.26"/>
      <rect class="cls-3" x="658.84" y="254.3" width="1" height="8.26"/>
      <rect class="cls-3" x="663.19" y="254.3" width="1" height="8.26"/>
      <rect class="cls-3" x="667.54" y="254.3" width="1" height="8.26"/>
      <rect class="cls-3" x="671.89" y="254.3" width="1" height="8.26"/>
      <rect class="cls-3" x="676.24" y="254.3" width="1" height="8.26"/>
      <rect class="cls-3" x="680.59" y="254.3" width="1" height="8.26"/>
      <rect class="cls-3" x="684.94" y="254.3" width="1" height="8.26"/>
      <rect class="cls-3" x="689.29" y="254.3" width="1" height="8.26"/>
      <rect class="cls-3" x="693.64" y="254.3" width="1" height="8.26"/>
      <rect class="cls-3" x="697.99" y="254.3" width="1" height="8.26"/>
    </g>
    <g class="cls-1">
      <rect class="cls-2" x="650.69" y="270.82" width="50.56" height="8.47"/>
      <rect class="cls-3" x="654.14" y="270.92" width="1" height="8.26"/>
      <rect class="cls-3" x="658.49" y="270.92" width="1" height="8.26"/>
      <rect class="cls-3" x="662.84" y="270.92" width="1" height="8.26"/>
      <rect class="cls-3" x="667.19" y="270.92" width="1" height="8.26"/>
      <rect class="cls-3" x="671.54" y="270.92" width="1" height="8.26"/>
      <rect class="cls-3" x="675.89" y="270.92" width="1" height="8.26"/>
      <rect class="cls-3" x="680.25" y="270.92" width="1" height="8.26"/>
      <rect class="cls-3" x="684.6" y="270.92" width="1" height="8.26"/>
      <rect class="cls-3" x="688.95" y="270.92" width="1" height="8.26"/>
      <rect class="cls-3" x="693.3" y="270.92" width="1" height="8.26"/>
      <rect class="cls-3" x="697.65" y="270.92" width="1" height="8.26"/>
    </g>
    <g class="cls-1">
      <rect class="cls-2" x="605.52" y="262.56" width="50.56" height="8.47"/>
      <rect class="cls-3" x="608.96" y="262.66" width="1" height="8.26"/>
      <rect class="cls-3" x="613.31" y="262.66" width="1" height="8.26"/>
      <rect class="cls-3" x="617.67" y="262.66" width="1" height="8.26"/>
      <rect class="cls-3" x="622.02" y="262.66" width="1" height="8.26"/>
      <rect class="cls-3" x="626.37" y="262.66" width="1" height="8.26"/>
      <rect class="cls-3" x="630.72" y="262.66" width="1" height="8.26"/>
      <rect class="cls-3" x="635.07" y="262.66" width="1" height="8.26"/>
      <rect class="cls-3" x="639.42" y="262.66" width="1" height="8.26"/>
      <rect class="cls-3" x="643.77" y="262.66" width="1" height="8.26"/>
      <rect class="cls-3" x="648.12" y="262.66" width="1" height="8.26"/>
      <rect class="cls-3" x="652.47" y="262.66" width="1" height="8.26"/>
    </g>
    <g>
      <path class="cls-2" d="m98.09,218.26c-13.22,0-21.11-35.82-21.11-70.44s7.9-70.44,21.11-70.44,21.11,35.82,21.11,70.44-7.9,70.44-21.11,70.44Zm0-137.88c-8.75,0-18.11,27.1-18.11,67.44s9.37,67.44,18.11,67.44,18.11-27.1,18.11-67.44-9.37-67.44-18.11-67.44Z"/>
      <rect class="cls-2" x="96.59" y="116.11" width="3" height="166.47"/>
      <rect class="cls-2" x="95.55" y="144" width="17.33" height="3" transform="translate(-72.36 116.31) rotate(-45)"/>
      <rect class="cls-2" x="92.18" y="130.77" width="3" height="11.68" transform="translate(-69.16 106.26) rotate(-45)"/>
      <rect class="cls-2" x="90.91" y="151.72" width="3" height="16.95" transform="translate(-86.21 112.26) rotate(-45)"/>
      <rect class="cls-2" x="96.27" y="169.54" width="13.96" height="3" transform="translate(-90.7 123.1) rotate(-45)"/>
      <rect class="cls-2" x="93.52" y="181.27" width="3" height="9.75" transform="translate(-103.79 121.71) rotate(-45)"/>
    </g>
    <g>
      <path class="cls-2" d="m747.98,216.48c-13.22,0-21.11-35.82-21.11-70.44s7.9-70.44,21.11-70.44,21.11,35.82,21.11,70.44-7.9,70.44-21.11,70.44Zm0-137.88c-8.75,0-18.11,27.1-18.11,67.44s9.37,67.44,18.11,67.44,18.11-27.1,18.11-67.44-9.37-67.44-18.11-67.44Z"/>
      <rect class="cls-2" x="746.48" y="114.33" width="3" height="166.47"/>
      <rect class="cls-2" x="745.44" y="142.22" width="17.33" height="3" transform="translate(119.25 575.33) rotate(-45)"/>
      <rect class="cls-2" x="742.07" y="128.99" width="3" height="11.68" transform="translate(122.46 565.29) rotate(-45)"/>
      <rect class="cls-2" x="740.8" y="149.93" width="3" height="16.95" transform="translate(105.4 571.28) rotate(-45)"/>
      <rect class="cls-2" x="746.16" y="167.75" width="13.96" height="3" transform="translate(100.91 582.13) rotate(-45)"/>
      <rect class="cls-2" x="743.42" y="179.48" width="3" height="9.75" transform="translate(87.82 580.73) rotate(-45)"/>
    </g>
    <g>
      <path class="cls-2" d="m709.78,183.69c-6.7,0-10.7-18.15-10.7-35.69s4-35.69,10.7-35.69,10.7,18.15,10.7,35.69-4,35.69-10.7,35.69Zm0-69.87c-4.43,0-9.18,13.73-9.18,34.17s4.75,34.17,9.18,34.17,9.18-13.73,9.18-34.17-4.75-34.17-9.18-34.17Z"/>
      <rect class="cls-2" x="709.02" y="131.93" width="1.52" height="84.35"/>
      <rect class="cls-2" x="708.5" y="146.06" width="8.78" height="1.52" transform="translate(104.98 547.09) rotate(-45)"/>
      <rect class="cls-2" x="706.79" y="139.36" width="1.52" height="5.92" transform="translate(106.6 541.99) rotate(-45)"/>
      <rect class="cls-2" x="706.14" y="149.97" width="1.52" height="8.59" transform="translate(97.96 545.03) rotate(-45)"/>
      <rect class="cls-2" x="708.86" y="159" width="7.07" height="1.52" transform="translate(95.69 550.53) rotate(-45)"/>
      <rect class="cls-2" x="707.47" y="164.94" width="1.52" height="4.94" transform="translate(89.03 549.78) rotate(-45)"/>
    </g>
    <path class="cls-2" d="m399.73,58.74c0,14.87-7.81,22.25-16.93,22.25s-16.39-7.05-16.5-21.27c0-14.11,7.7-22.03,17.04-22.03,9.88,0,16.39,7.6,16.39,21.05Zm-25.83.65c-.22,9.01,3.15,15.84,9.12,15.84,6.29,0,9.12-6.73,9.12-16.06,0-8.57-2.5-15.74-9.12-15.74-5.97,0-9.12,7.05-9.12,15.95Zm8.25,51.22l41.46-72.93h6.08l-41.46,72.93h-6.08Zm63.48-22.68c0,14.87-7.81,22.25-16.82,22.25s-16.39-7.05-16.5-21.16c0-14.22,7.7-22.14,17.04-22.14,9.88,0,16.28,7.6,16.28,21.05Zm-25.83.65c-.11,9.01,3.36,15.84,9.22,15.84,6.29,0,9.12-6.73,9.12-16.06,0-8.57-2.5-15.74-9.12-15.74-5.97,0-9.22,7.05-9.22,15.95Z"/>
    <g>
      <path class="cls-3" d="m544.07,280.36s-22.64-13.11-2.72-26.55c0,0-3.23-25.19,16.85-13.11,0,0,14.47-18.72,21.45,4.77,0,0,17.19-4.94,12.26,16,0,0,9.02,13.11-3.57,18.72l-44.26.17Z"/>
      <path class="cls-2" d="m543.66,281.86l-.35-.2c-.46-.27-11.35-6.67-11.66-15.6-.16-4.67,2.57-9.03,8.11-12.98-.25-3.01-.56-12.45,4.72-15.9,3.22-2.1,7.71-1.56,13.37,1.59,2.05-2.29,7.47-7.56,13.17-6.5,4.13.77,7.37,4.62,9.63,11.44,2.4-.41,7.27-.73,10.55,2.4,3.08,2.93,3.84,8,2.28,15.08,1.09,1.79,4.13,7.45,2.61,12.83-.93,3.3-3.34,5.83-7.18,7.54l-.29.13-44.98.17Zm5.29-42.93c-1.04,0-2,.23-2.83.76-3.84,2.5-3.68,10.9-3.3,13.93l.12.92-.76.52c-5.12,3.46-7.66,7.13-7.53,10.9.22,6.5,8.1,11.82,9.83,12.91l43.51-.17c2.81-1.32,4.57-3.16,5.23-5.48,1.42-5.01-2.52-10.84-2.56-10.9l-.37-.55.15-.65c1.46-6.19,1.02-10.63-1.28-12.83-3.15-3.02-9.04-1.4-9.1-1.38l-1.42.4-.42-1.42c-1.9-6.39-4.57-10.08-7.72-10.67-4.38-.82-9.51,4.34-11.1,6.4l-.82,1.05-1.14-.69c-2.54-1.53-5.76-3.06-8.47-3.06Z"/>
    </g>
    <g>
      <path class="cls-3" d="m760.4,281.17s-22.64-13.11-2.72-26.55c0,0-3.23-25.19,16.85-13.11,0,0,14.47-18.72,21.45,4.77,0,0,17.19-4.94,12.26,16,0,0,9.02,13.11-3.57,18.72l-44.26.17Z"/>
      <path class="cls-2" d="m760,282.67l-.35-.2c-.46-.27-11.35-6.67-11.66-15.6-.16-4.67,2.57-9.03,8.11-12.98-.25-3.01-.56-12.45,4.72-15.9,3.22-2.1,7.71-1.56,13.37,1.59,2.05-2.29,7.46-7.57,13.17-6.5,4.13.77,7.37,4.62,9.63,11.44,2.4-.41,7.27-.73,10.55,2.4,3.08,2.93,3.84,8,2.28,15.08,1.09,1.79,4.13,7.45,2.61,12.83-.93,3.3-3.34,5.83-7.18,7.54l-.29.13-44.98.17Zm5.29-42.93c-1.04,0-2,.22-2.83.76-3.84,2.5-3.68,10.9-3.3,13.93l.12.92-.76.52c-5.12,3.46-7.66,7.13-7.53,10.9.22,6.5,8.11,11.82,9.83,12.91l43.51-.17c2.81-1.32,4.57-3.16,5.23-5.48,1.42-5.01-2.52-10.84-2.56-10.9l-.37-.55.15-.65c1.46-6.19,1.02-10.63-1.28-12.83-3.15-3.01-9.04-1.4-9.1-1.38l-1.42.4-.42-1.42c-1.9-6.39-4.57-10.08-7.72-10.67-4.4-.82-9.51,4.34-11.1,6.4l-.82,1.05-1.14-.69c-2.54-1.53-5.76-3.06-8.47-3.06Z"/>
    </g>
    <g>
      <path class="cls-3" d="m41.45,281.17s-22.64-13.11-2.72-26.55c0,0-3.23-25.19,16.85-13.11,0,0,14.47-18.72,21.45,4.77,0,0,17.19-4.94,12.26,16,0,0,9.02,13.11-3.57,18.72l-44.26.17Z"/>
      <path class="cls-2" d="m41.05,282.67l-.35-.2c-.46-.27-11.35-6.67-11.66-15.6-.16-4.67,2.57-9.03,8.11-12.98-.25-3.01-.56-12.45,4.72-15.9,3.22-2.1,7.71-1.56,13.37,1.59,2.05-2.29,7.46-7.57,13.17-6.5,4.13.77,7.37,4.62,9.63,11.44,2.4-.41,7.27-.73,10.55,2.4,3.08,2.93,3.84,8,2.28,15.08,1.09,1.79,4.13,7.45,2.61,12.83-.93,3.3-3.34,5.83-7.18,7.54l-.29.13-44.98.17Zm5.29-42.93c-1.04,0-2,.22-2.83.76-3.84,2.5-3.68,10.9-3.3,13.93l.12.92-.76.52c-5.13,3.46-7.66,7.13-7.53,10.9.22,6.52,8.1,11.82,9.83,12.91l43.51-.17c2.81-1.32,4.57-3.16,5.23-5.48,1.42-5.01-2.52-10.84-2.56-10.9l-.37-.55.15-.65c1.46-6.19,1.02-10.63-1.28-12.83-3.15-3.01-9.04-1.4-9.1-1.38l-1.42.4-.42-1.42c-1.9-6.39-4.57-10.08-7.72-10.67-4.39-.82-9.51,4.34-11.1,6.4l-.82,1.05-1.14-.69c-2.54-1.53-5.76-3.06-8.47-3.06Z"/>
    </g>
    <g>
      <path class="cls-2" d="m220.13,203.01c.34.11,11.49,16.43,11.49,16.43,0,0-18.85,35.97-19.88,42.06s9.94,20.22,9.94,20.22h41.54s13.9-15.4,14.13-20.45-17.57-40.57-17.57-40.57c0,0,9.76-18.04,9.07-17.69s-48.72,0-48.72,0Z"/>
      <rect class="cls-4" x="231.02" y="218.55" width="30.24" height="2"/>
      <path class="cls-4" d="m243,268.56v-4.4c-2.53-.04-5.15-.83-6.67-1.92l1.05-2.92c1.57,1.05,3.84,1.88,6.28,1.88,3.1,0,5.19-1.79,5.19-4.27s-1.7-3.88-4.93-5.19c-4.45-1.74-7.2-3.75-7.2-7.54s2.57-6.37,6.58-7.02v-4.4h2.7v4.23c2.62.09,4.4.79,5.67,1.53l-1.09,2.88c-.92-.52-2.7-1.48-5.5-1.48-3.36,0-4.62,2.01-4.62,3.75,0,2.27,1.61,3.4,5.41,4.97,4.49,1.83,6.76,4.1,6.76,7.98,0,3.44-2.4,6.67-6.89,7.41v4.54h-2.75Z"/>
    </g>
    <g>
      <path class="cls-4" d="m209.2,141.86h36.94s7.49,5.53-1.49,10.26l-8.72.34-2.09-3.49s-2.09,3.45-2.21,3.49-3.02,0-3.02,0l-2.04-3.11-2,3.7h-2.26l-1.83-3.7-2.3,3.15-10.63.23.2-10.7,1.45-.17Z"/>
      <path class="cls-2" d="m225.46,154.55h-4.08l-1.15-2.32-1.28,1.75-12.93.28.26-13.57,2.92-.33h37.43l.4.29c.16.11,3.8,2.85,3.52,6.55-.18,2.42-1.93,4.52-5.2,6.23l-.3.16-9.95.39-1.27-2.12c-1.12,1.81-1.25,1.85-1.73,2.01-.28.09-.37.12-3.52.08h-.79s-1.1-1.68-1.1-1.68l-1.23,2.28Zm-2.22-3h.43l2.77-5.12,2.98,4.54c.52,0,1.04,0,1.41,0,.42-.65,1.12-1.79,1.72-2.79l1.29-2.14,2.91,4.87,7.49-.29c1.51-.84,3.2-2.11,3.32-3.65.11-1.45-1.17-2.92-1.96-3.62h-36.37s-.15,7.84-.15,7.84l8.32-.18,3.32-4.55,2.51,5.09Z"/>
    </g>
    <g>
      <path class="cls-4" d="m172.5,147.82c0-9.87,8-17.87,17.87-17.87,7.83,0,14.48,5.03,16.9,12.04.63,1.83.97,3.79.97,5.83,0,9.87-8,17.87-17.87,17.87s-17.87-8-17.87-17.87Z"/>
      <path class="cls-2" d="m190.37,167.19c-10.68,0-19.37-8.69-19.37-19.37s8.69-19.37,19.37-19.37c8.26,0,15.62,5.25,18.32,13.05.7,2.03,1.06,4.16,1.06,6.32,0,10.68-8.69,19.37-19.37,19.37Zm0-35.74c-9.03,0-16.37,7.34-16.37,16.37s7.34,16.37,16.37,16.37,16.37-7.34,16.37-16.37c0-1.83-.3-3.63-.89-5.34-2.28-6.6-8.5-11.03-15.48-11.03Z"/>
    </g>
    <g>
      <path class="cls-3" d="m148.75,280.9c4.43-3.04,7.25-7.65,7.25-12.81,0-9.16-8.92-16.59-19.92-16.59s-19.91,7.43-19.91,16.59c0,5.16,2.82,9.77,7.24,12.81"/>
      <path class="cls-2" d="m149.6,282.14l-1.7-2.47c4.19-2.88,6.6-7.09,6.6-11.57,0-8.32-8.26-15.09-18.42-15.09s-18.41,6.77-18.41,15.09c0,4.47,2.4,8.69,6.59,11.57l-1.7,2.47c-5.01-3.45-7.89-8.57-7.89-14.05,0-9.98,9.6-18.09,21.41-18.09s21.42,8.12,21.42,18.09c0,5.48-2.88,10.6-7.9,14.05Z"/>
    </g>
    <rect class="cls-3" x="181.6" y="140.65" width="6.26" height="14.43" rx="3.13" ry="3.13"/>
    <rect class="cls-2" x="50.37" y="279.67" width="715.4" height="3"/>
    <rect class="cls-2" x="34.33" y="301.56" width="269.27" height="3"/>
    <rect class="cls-2" x="357.31" y="301.56" width="195.39" height="3"/>
    <rect class="cls-2" x="630.62" y="301.56" width="64.89" height="3"/>
    <rect class="cls-2" x="258.58" y="321.74" width="135.61" height="3"/>
    <rect class="cls-2" x="703.26" y="321.24" width="26.61" height="3"/>
    <g>
      <g>
        <path class="cls-3" d="m675.91,15.98v165.88c-1.48.11-3.13.17-4.88.17h-9.42c-1.75,0-3.42-.06-4.9-.17V15.98h19.2Z"/>
        <path class="cls-2" d="m671.03,183.53h-9.42c-1.74,0-3.47-.06-5.01-.17l-1.39-.1V14.48h22.2v168.78l-1.39.1c-1.57.11-3.25.17-4.99.17Zm-12.82-3.08c1.08.05,2.24.08,3.4.08h9.42c1.17,0,2.3-.03,3.38-.08V17.48h-16.2v162.97Z"/>
      </g>
      <g>
        <path class="cls-3" d="m657.41,184.63s8.58,21.99,8.74,21.92,9.01-21.97,9.01-21.97l-17.75.05Z"/>
        <path class="cls-2" d="m666.09,208.08c-.96,0-1.4-1.06-1.74-1.87-.25-.6-.6-1.46-1.02-2.5-.83-2.06-1.92-4.8-3-7.55-2.17-5.49-4.31-10.99-4.31-10.99l-.79-2.04,22.17-.06-.83,2.07q-9.09,22.52-9.87,22.81c-.22.08-.42.12-.6.12Zm-6.49-21.95c2.17,5.56,4.95,12.61,6.56,16.6,1.64-3.96,4.47-10.93,6.78-16.64l-13.33.04Z"/>
      </g>
    </g>
    <g>
      <path class="cls-2" d="m678.65,202.85c.34.11,11.49,16.43,11.49,16.43,0,0-18.85,35.97-19.88,42.06-1.03,6.09,9.94,20.22,9.94,20.22h41.54s13.9-15.4,14.13-20.45-17.57-40.57-17.57-40.57c0,0,9.76-18.04,9.07-17.69s-48.72,0-48.72,0Z"/>
      <rect class="cls-4" x="689.55" y="218.39" width="30.24" height="2"/>
      <path class="cls-4" d="m701.52,268.4v-4.4c-2.53-.04-5.15-.83-6.67-1.92l1.05-2.92c1.57,1.05,3.84,1.88,6.28,1.88,3.1,0,5.19-1.79,5.19-4.27s-1.7-3.88-4.93-5.19c-4.45-1.74-7.2-3.75-7.2-7.54s2.57-6.37,6.58-7.02v-4.4h2.7v4.23c2.62.09,4.4.79,5.67,1.53l-1.09,2.88c-.92-.52-2.7-1.48-5.5-1.48-3.36,0-4.62,2.01-4.62,3.75,0,2.27,1.61,3.4,5.41,4.97,4.49,1.83,6.76,4.1,6.76,7.98,0,3.44-2.4,6.67-6.89,7.41v4.54h-2.75Z"/>
    </g>
  </g>
</svg>