<svg width="178" height="36" viewBox="0 0 178 36" fill="none" xmlns="http://www.w3.org/2000/svg">
<g clip-path="url(#clip0_895_15)">
<path d="M88.6803 23.7717C89.6903 22.8917 90.5001 21.8055 91.055 20.5862C91.61 19.3669 91.8972 18.0428 91.8974 16.7032C91.9317 18.9317 90.4746 21.206 87.8974 22.8003C85.0282 24.5619 81.6947 25.4181 78.3317 25.2574C75.1089 25.006 74.5031 23.766 74.3317 22.7432C74.1603 21.7203 74.7888 19.766 76.4631 15.0974C77.7546 11.4917 79.3831 8.0003 80.0631 6.58887C77.6681 6.93012 75.2918 7.39165 72.9431 7.97172L65.8574 26.4689C65.8574 26.4689 69.6631 27.8746 75.8117 28.0232C80.8288 28.1374 85.6803 26.5374 88.6803 23.7717Z" fill="#BAE14E"/>
<path fill-rule="evenodd" clip-rule="evenodd" d="M175.863 2.47425H175.485V0.857114C175.69 0.812801 175.899 0.791715 176.108 0.794257C176.308 0.775816 176.508 0.821883 176.68 0.925687C176.73 0.968732 176.77 1.0222 176.798 1.08239C176.826 1.14257 176.84 1.20804 176.84 1.27426C176.833 1.36758 176.796 1.45608 176.734 1.52624C176.672 1.5964 176.589 1.64438 176.497 1.66284C176.58 1.69453 176.652 1.7488 176.706 1.81951C176.759 1.89021 176.792 1.97451 176.8 2.06283C176.845 2.30855 176.874 2.41141 176.92 2.45712H176.508C176.445 2.33488 176.401 2.2039 176.377 2.06854C176.377 1.8914 176.251 1.81141 176.04 1.81141H175.863V2.47425ZM175.863 1.55998H176.04C176.251 1.55998 176.417 1.49141 176.417 1.31998C176.417 1.14855 176.308 1.07426 176.068 1.07426C176 1.06857 175.931 1.06857 175.863 1.07426V1.55998Z" fill="#1E1E1E"/>
<path fill-rule="evenodd" clip-rule="evenodd" d="M176.108 6.26966e-06C176.43 0.0145797 176.739 0.123299 176.999 0.312633C177.259 0.501966 177.458 0.76356 177.57 1.06487C177.683 1.36618 177.704 1.6939 177.632 2.00727C177.56 2.32064 177.397 2.60581 177.164 2.82732C176.93 3.04883 176.637 3.1969 176.321 3.25309C176.004 3.30929 175.678 3.27114 175.383 3.14339C175.087 3.01564 174.836 2.80392 174.661 2.53459C174.485 2.26525 174.392 1.95019 174.394 1.62858C174.395 1.40754 174.44 1.18891 174.527 0.985894C174.615 0.782883 174.742 0.599716 174.903 0.447477C175.063 0.295237 175.252 0.17709 175.46 0.100178C175.667 0.0232656 175.888 -0.0108144 176.108 6.26966e-06ZM176.108 0.32572C175.777 0.347654 175.466 0.494759 175.239 0.737215C175.012 0.979671 174.886 1.29934 174.886 1.63144C174.886 1.96353 175.012 2.2832 175.239 2.52566C175.466 2.76811 175.777 2.91522 176.108 2.93715C176.44 2.91522 176.75 2.76811 176.977 2.52566C177.204 2.2832 177.33 1.96353 177.33 1.63144C177.33 1.29934 177.204 0.979671 176.977 0.737215C176.75 0.494759 176.44 0.347654 176.108 0.32572Z" fill="#1E1E1E"/>
<path d="M4.70829 3.50286L0.142578 28.0457H5.80543L10.714 2.36572L4.70829 3.50286Z" fill="#1E1E1E"/>
<path fill-rule="evenodd" clip-rule="evenodd" d="M17.6117 28.0229C24.2974 28.0229 29.0974 22.8686 29.0974 15.8229C29.0974 11.4571 26.0974 7.91431 20.9545 7.91431C14.1088 7.91431 9.46875 13.3829 9.46875 20.0686C9.46875 24.8343 12.7317 28.0229 17.6117 28.0229ZM18.3944 23.6914C16.4287 23.6914 15.3316 22.2 15.3316 19.9543C15.2916 16.9657 16.9374 12.2057 20.2059 12.2057C22.4859 12.2057 23.2344 14.0914 23.2344 15.8629C23.2344 19.1657 21.503 23.6914 18.3944 23.6914Z" fill="#1E1E1E"/>
<path d="M46.9307 27.6114L49.3708 14.6286C49.845 12.1886 50.1536 10.0572 50.3936 8.37145H55.4279L55.0336 11.56H55.1136C55.8533 10.4433 56.8588 9.52773 58.0396 8.89542C59.2205 8.2631 60.5398 7.93383 61.8793 7.93716C65.0279 7.93716 66.7993 9.86859 66.7993 13.1714C66.7682 14.267 66.6612 15.3592 66.4793 16.44L64.3593 27.6114H58.6908L60.6793 16.9657C60.8072 16.2508 60.8741 15.5263 60.8793 14.8C60.8793 13.4629 60.405 12.5143 58.9936 12.5143C57.1422 12.5143 54.9936 14.8343 54.1936 19.0857L52.5765 27.6229L46.9307 27.6114Z" fill="#1E1E1E"/>
<path fill-rule="evenodd" clip-rule="evenodd" d="M109.125 28.0457C111.597 28.0737 114.043 27.5485 116.285 26.5086L115.874 22.4171C114.196 23.2354 112.352 23.654 110.485 23.64C108.834 23.64 107.531 23.1257 106.788 22.1429C106.421 21.5523 106.224 20.8724 106.217 20.1771C113.925 20.3714 118.685 18.6 118.685 13.68C118.685 10.1029 115.891 7.93713 112 7.93713C105.034 7.93713 100.788 14.04 100.788 19.8972C100.788 24.8972 103.617 28.0457 109.125 28.0457ZM111.285 12.0686C112.588 12.0686 113.371 12.7371 113.371 13.68V13.7486C113.371 15.4971 111.171 16.1029 106.765 16.0686C107.16 14.2343 108.651 12.0686 111.285 12.0686Z" fill="#1E1E1E"/>
<path fill-rule="evenodd" clip-rule="evenodd" d="M116.108 34.9087L119.754 15.823C120.188 13.5372 120.657 10.2001 120.897 8.23435H125.965L125.611 11.183H125.691C126.399 10.202 127.326 9.3995 128.398 8.8391C129.471 8.27869 130.659 7.97576 131.868 7.95435C136.04 7.95435 138.045 11.303 138.045 15.2344C138.045 21.9258 133.6 28.063 126.914 28.063C125.673 28.0952 124.444 27.8246 123.331 27.2744H123.257L121.943 33.6287L116.108 34.9087ZM124.108 22.8115C124.817 23.4516 125.748 23.7898 126.703 23.7544C129.737 23.7544 132.097 19.423 132.097 15.6515C132.097 14.1144 131.468 12.503 129.617 12.503C127.491 12.503 125.525 14.903 124.817 18.6801L124.108 22.8115Z" fill="#1E1E1E"/>
<path fill-rule="evenodd" clip-rule="evenodd" d="M146.823 28.0229C153.514 28.0229 158.308 22.8686 158.308 15.8229C158.308 11.4571 155.308 7.91431 150.165 7.91431C143.32 7.91431 138.68 13.3829 138.68 20.0686C138.68 24.8343 141.943 28.0229 146.823 28.0229ZM147.605 23.6914C145.64 23.6914 144.537 22.2 144.537 19.9543C144.497 16.9657 146.148 12.2057 149.423 12.2057C151.697 12.2057 152.445 14.0914 152.445 15.8629C152.445 19.1714 150.714 23.6914 147.605 23.6914Z" fill="#1E1E1E"/>
<path d="M169.091 3.14282L168.108 8.39425H172.194L171.371 12.68H167.28L165.983 19.2171C165.804 20.0173 165.699 20.8321 165.668 21.6514C165.668 22.5943 166.063 23.2686 167.28 23.2686C167.807 23.2819 168.334 23.2551 168.857 23.1886L168.183 27.6343C167.097 27.9483 165.97 28.0947 164.84 28.0686C161.457 28.0686 159.845 26.2971 159.845 23.8972C159.864 22.6931 159.996 21.4935 160.24 20.3143L161.737 12.68H159.297L160.108 8.39425H162.588L163.297 4.77711L169.091 3.14282Z" fill="#1E1E1E"/>
<path fill-rule="evenodd" clip-rule="evenodd" d="M45.1025 27.6114C45.2259 26.0357 45.4666 24.4714 45.8225 22.9314L47.2453 16.2172C48.2053 11.6914 46.9653 7.91433 40.5539 7.91433C37.8476 7.89671 35.1713 8.48233 32.7196 9.62861L32.9996 13.4857C34.7355 12.5705 36.6606 12.0716 38.6225 12.0286C41.5939 12.0286 41.811 13.4857 41.5939 14.5086L41.5368 14.7829C34.7368 14.7486 29.7425 17.1429 28.6796 22.1429C28.0282 25.1886 29.7482 28.0457 33.6453 28.0457C35.8782 28.0714 38.033 27.2247 39.651 25.6857H39.7711L39.7139 27.6114H45.1025ZM34.1311 21.5829C34.6568 19.0514 37.5139 18.2343 40.9425 18.2743L40.4511 20.5543C40.3709 20.9374 40.2502 21.3109 40.0911 21.6686C39.7048 22.3751 39.1413 22.969 38.456 23.3918C37.7707 23.8146 36.9872 24.0518 36.1825 24.08C34.7025 24.08 33.7768 23.2629 34.1311 21.5829Z" fill="#1E1E1E"/>
<path d="M82.6678 6.27997C87.8678 5.74283 93.7306 6.48568 96.8507 9.53711C99.9592 12.5714 100.217 18.2343 96.7649 22.3714C93.1764 26.6857 86.3192 29.7029 79.9706 29.8972C73.9421 30.0857 68.9706 28.8057 65.8906 26.4686C65.8906 26.4686 69.6964 27.8743 75.8449 28.0229C80.8221 28.1372 85.6735 26.5372 88.6792 23.7714C89.6889 22.8932 90.4988 21.809 91.0547 20.5918C91.6106 19.3746 91.8995 18.0525 91.9021 16.7143C91.8678 14.1771 90.2735 12.2743 86.2735 11.5314C84.0621 11.1143 80.0621 11.6572 80.0621 11.6572L82.6278 6.27997H82.6678Z" fill="#1E1E1E"/>
</g>
<defs>
<clipPath id="clip0_895_15">
<rect width="178" height="36" fill="white"/>
</clipPath>
</defs>
</svg>
