<?xml version="1.0" encoding="UTF-8"?>
<svg id="Layer_1" data-name="Layer 1" xmlns="http://www.w3.org/2000/svg" viewBox="0 0 793.53 311.92">
  <defs>
    <style>
      .cls-1 {
        fill: #3498db;
      }

      .cls-1, .cls-2, .cls-3 {
        stroke-width: 0px;
      }

      .cls-2 {
        fill: #fff;
      }

      .cls-3 {
        fill: #444;
      }
    </style>
  </defs>
  <g>
    <g>
      <path class="cls-3" d="m250.89,154.76l35.84-80.68h18.44l36.19,80.68h-19.59l-29.62-71.23h7.49l-29.62,71.23h-19.13Zm18.09-17.29l4.73-14.18h41.72l4.84,14.18h-51.29Z"/>
      <path class="cls-3" d="m368.8,155.68c-5.3,0-10.37-.63-15.21-1.9-4.84-1.27-8.72-2.86-11.64-4.78l5.88-12.79c2.92,1.69,6.32,3.09,10.2,4.21,3.88,1.12,7.7,1.67,11.47,1.67,4.15,0,7.09-.5,8.82-1.5,1.73-1,2.59-2.38,2.59-4.15,0-1.46-.67-2.55-2.02-3.28-1.35-.73-3.11-1.29-5.3-1.67-2.19-.38-4.63-.77-7.32-1.15-2.69-.38-5.36-.92-8.01-1.61-2.65-.69-5.11-1.67-7.38-2.94-2.27-1.27-4.07-3.01-5.42-5.24-1.35-2.23-2.02-5.11-2.02-8.64,0-3.92,1.15-7.39,3.46-10.43,2.31-3.03,5.57-5.4,9.8-7.09,4.22-1.69,9.34-2.54,15.33-2.54,4.3,0,8.62.48,12.97,1.44,4.34.96,8.01,2.29,11.01,3.98l-6.11,12.79c-2.92-1.69-5.9-2.88-8.93-3.57-3.04-.69-5.94-1.04-8.7-1.04-4.15,0-7.15.54-8.99,1.61-1.84,1.08-2.77,2.46-2.77,4.15,0,1.54.69,2.71,2.07,3.52,1.38.81,3.19,1.4,5.42,1.79,2.23.39,4.69.77,7.38,1.15,2.69.39,5.34.92,7.95,1.61,2.61.69,5.05,1.67,7.32,2.94,2.27,1.27,4.07,3.02,5.42,5.24,1.34,2.23,2.02,5.11,2.02,8.64,0,3.77-1.15,7.13-3.46,10.08-2.31,2.96-5.63,5.28-9.97,6.97-4.34,1.69-9.62,2.54-15.85,2.54Z"/>
      <path class="cls-3" d="m429.88,155.68c-5.3,0-10.37-.63-15.21-1.9-4.84-1.27-8.72-2.86-11.64-4.78l5.88-12.79c2.92,1.69,6.32,3.09,10.2,4.21,3.88,1.12,7.7,1.67,11.47,1.67,4.15,0,7.09-.5,8.82-1.5,1.73-1,2.59-2.38,2.59-4.15,0-1.46-.67-2.55-2.02-3.28-1.35-.73-3.11-1.29-5.3-1.67-2.19-.38-4.63-.77-7.32-1.15-2.69-.38-5.36-.92-8.01-1.61-2.65-.69-5.11-1.67-7.38-2.94-2.27-1.27-4.07-3.01-5.42-5.24-1.35-2.23-2.02-5.11-2.02-8.64,0-3.92,1.15-7.39,3.46-10.43,2.31-3.03,5.57-5.4,9.8-7.09,4.22-1.69,9.34-2.54,15.33-2.54,4.3,0,8.62.48,12.97,1.44,4.34.96,8.01,2.29,11.01,3.98l-6.11,12.79c-2.92-1.69-5.9-2.88-8.93-3.57-3.04-.69-5.94-1.04-8.7-1.04-4.15,0-7.15.54-8.99,1.61-1.84,1.08-2.77,2.46-2.77,4.15,0,1.54.69,2.71,2.07,3.52,1.38.81,3.19,1.4,5.42,1.79,2.23.39,4.69.77,7.38,1.15,2.69.39,5.34.92,7.95,1.61,2.61.69,5.05,1.67,7.32,2.94,2.27,1.27,4.07,3.02,5.42,5.24,1.34,2.23,2.02,5.11,2.02,8.64,0,3.77-1.15,7.13-3.46,10.08-2.31,2.96-5.63,5.28-9.97,6.97-4.34,1.69-9.62,2.54-15.85,2.54Z"/>
      <path class="cls-3" d="m496.27,155.68c-5.23,0-9.84-1-13.83-3-4-2-7.11-5.07-9.34-9.22-2.23-4.15-3.34-9.37-3.34-15.68v-35.04h17.98v32.27c0,5.23,1.09,9.05,3.28,11.47s5.28,3.63,9.28,3.63c2.77,0,5.22-.61,7.38-1.84,2.15-1.23,3.86-3.07,5.13-5.53,1.27-2.46,1.9-5.53,1.9-9.22v-30.77h17.86v62.01h-17.06v-17.17l3.11,5.07c-2.15,4.3-5.23,7.55-9.22,9.74-4,2.19-8.38,3.28-13.14,3.28Z"/>
      <path class="cls-3" d="m549.17,154.76v-62.01h17.17v17.63l-2.42-5.19c1.84-4.38,4.8-7.7,8.87-9.97,4.07-2.27,9.03-3.4,14.87-3.4v16.71c-.69-.15-1.37-.27-2.02-.35-.65-.08-1.29-.11-1.9-.11-5.07,0-9.1,1.42-12.1,4.26-3,2.84-4.49,7.22-4.49,13.14v29.27h-17.98Z"/>
      <path class="cls-3" d="m606.68,84.11c-3.38,0-6.11-.96-8.18-2.88-2.07-1.92-3.11-4.3-3.11-7.15s1.04-5.22,3.11-7.15c2.07-1.92,4.8-2.88,8.18-2.88s6.01.9,8.13,2.71c2.11,1.81,3.17,4.13,3.17,6.97,0,3-1.04,5.48-3.11,7.43-2.07,1.96-4.8,2.94-8.18,2.94Zm-8.99,70.65v-62.01h17.98v62.01h-17.98Z"/>
      <path class="cls-3" d="m622.7,107.96v-13.83h42.99v13.83h-42.99Zm9.57,46.79v-63.39c0-7.07,2.07-12.68,6.22-16.83,4.15-4.15,10.06-6.22,17.75-6.22,2.54,0,5.03.27,7.49.81,2.46.54,4.53,1.35,6.22,2.42l-4.73,13.14c-1-.69-2.11-1.23-3.34-1.61-1.23-.38-2.54-.58-3.92-.58-2.61,0-4.63.73-6.05,2.19-1.42,1.46-2.13,3.77-2.13,6.92v5.76l.58,7.61v49.79h-18.09Zm51.86-70.65c-3.38,0-6.11-.96-8.18-2.88-2.07-1.92-3.11-4.3-3.11-7.15s1.04-5.22,3.11-7.15c2.07-1.92,4.8-2.88,8.18-2.88s6.01.9,8.12,2.71c2.11,1.81,3.17,4.13,3.17,6.97,0,3-1.04,5.48-3.11,7.43-2.07,1.96-4.8,2.94-8.18,2.94Zm-8.99,70.65v-62.01h17.98v62.01h-17.98Z"/>
      <path class="cls-3" d="m718.82,84.11c-3.38,0-6.11-.96-8.18-2.88-2.07-1.92-3.11-4.3-3.11-7.15s1.04-5.22,3.11-7.15c2.07-1.92,4.8-2.88,8.18-2.88s6.01.9,8.13,2.71c2.11,1.81,3.17,4.13,3.17,6.97,0,3-1.04,5.48-3.11,7.43-2.07,1.96-4.8,2.94-8.18,2.94Zm-8.99,70.65v-62.01h17.98v62.01h-17.98Z"/>
    </g>
    <g>
      <path class="cls-1" d="m138.15,67.77s-13.63,2.75-43.2,10.37c-27.93,7.2-37.73,10.08-37.73,10.08,0,0-1.44,28.8,11.23,80.92,10.23,42.08,48.38,65.37,69.69,78.56,21.31-13.19,59.46-36.48,69.69-78.56,12.67-52.13,11.23-80.92,11.23-80.92,0,0-9.79-2.88-37.73-10.08-29.57-7.62-43.2-10.37-43.2-10.37h0Z"/>
      <path class="cls-2" d="m95.18,149.73c10.21.48,18.24,5.55,24.42,13.92.77,1.05,1.46,2.16,2.19,3.23,1.2,1.75,1.83,1.75,2.94-.06,3.13-5.11,6.4-10.13,9.94-14.97,14.7-20.14,33.05-36.37,53.77-50.05.93-.61,1.94-1.41,2.93-.23,1.04,1.24.04,2.19-.74,3.05-8.83,9.76-17.17,19.94-25,30.52-15.68,21.17-29.04,43.7-39.75,67.78-.42.94-.71,2.09-2.01,2.13-1.44.05-1.72-1.19-2.12-2.21-5.81-14.59-12.91-28.46-22.55-40.93-2.23-2.88-4.65-5.61-6.99-8.41-.65-.77-1.72-1.4-1.25-2.64.51-1.34,1.76-1.1,2.85-1.13.33,0,.65,0,1.37,0Z"/>
    </g>
  </g>
  <g>
    <path class="cls-3" d="m250.54,247.86v-66.39h5.79l30.35,51.78h-3.03l30.06-51.78h5.79v66.39h-6.73v-55.86h1.61l-27.69,47.42h-3.32l-27.88-47.42h1.8v55.86h-6.73Z"/>
    <path class="cls-3" d="m363.2,248.34c-4.87,0-9.2-1.09-12.99-3.27-3.79-2.18-6.8-5.2-9.01-9.06-2.21-3.86-3.32-8.22-3.32-13.09s1.11-9.39,3.32-13.18c2.21-3.79,5.22-6.76,9.01-8.91,3.79-2.15,8.12-3.22,12.99-3.22s9.31,1.09,13.13,3.27c3.82,2.18,6.83,5.15,9.01,8.92,2.18,3.76,3.27,8.14,3.27,13.13s-1.09,9.31-3.27,13.13c-2.18,3.83-5.2,6.83-9.06,9.01-3.86,2.18-8.22,3.27-13.09,3.27Zm0-5.98c3.6,0,6.8-.81,9.58-2.42,2.78-1.61,4.98-3.89,6.59-6.83,1.61-2.94,2.42-6.34,2.42-10.2s-.81-7.33-2.42-10.24c-1.61-2.91-3.81-5.17-6.59-6.78-2.78-1.61-5.94-2.42-9.48-2.42s-6.7.81-9.48,2.42c-2.78,1.61-5,3.87-6.64,6.78-1.65,2.91-2.47,6.32-2.47,10.24s.82,7.25,2.47,10.2c1.64,2.94,3.84,5.22,6.59,6.83,2.75,1.61,5.9,2.42,9.44,2.42Z"/>
    <path class="cls-3" d="m405.6,247.86v-49.79h6.45v13.56l-.66-2.37c1.39-3.79,3.73-6.69,7.02-8.68,3.29-1.99,7.36-2.99,12.23-2.99v6.54c-.25,0-.51-.01-.76-.05-.25-.03-.51-.05-.76-.05-5.25,0-9.36,1.6-12.33,4.79-2.97,3.19-4.46,7.73-4.46,13.61v25.42h-6.73Z"/>
    <path class="cls-3" d="m440.5,203.67v-5.6h30.82v5.6h-30.82Zm23.52,44.67c-4.68,0-8.28-1.26-10.81-3.79-2.53-2.53-3.79-6.1-3.79-10.72v-46.75h6.73v46.38c0,2.91.74,5.15,2.23,6.73,1.48,1.58,3.62,2.37,6.4,2.37,2.97,0,5.44-.85,7.4-2.56l2.37,4.84c-1.33,1.2-2.92,2.09-4.79,2.66-1.87.57-3.78.85-5.74.85Z"/>
    <path class="cls-3" d="m508.11,245.97c-4.74,0-9.01-1.03-12.8-3.08s-6.78-4.92-8.96-8.58c-2.18-3.67-3.27-7.87-3.27-12.61s1.09-8.93,3.27-12.57c2.18-3.63,5.17-6.46,8.96-8.49s8.06-3.04,12.8-3.04c4.42,0,8.41.92,11.95,2.75,3.54,1.83,6.35,4.55,8.44,8.16s3.13,8,3.13,13.18-1.04,9.58-3.13,13.18c-2.09,3.6-4.9,6.35-8.44,8.25-3.54,1.9-7.52,2.85-11.95,2.85Zm1.23,20.77c-4.55,0-8.91-.66-13.09-1.99-4.17-1.33-7.56-3.22-10.15-5.69l3.41-5.12c2.34,2.09,5.23,3.75,8.68,4.98,3.45,1.23,7.1,1.85,10.95,1.85,6.32,0,10.97-1.47,13.94-4.41,2.97-2.94,4.46-7.51,4.46-13.7v-12.42l.95-8.54-.66-8.54v-15.08h6.45v43.72c0,8.6-2.1,14.9-6.31,18.92-4.21,4.01-10.42,6.02-18.64,6.02Zm-.57-26.74c3.67,0,6.92-.77,9.77-2.32,2.85-1.55,5.09-3.7,6.73-6.45,1.64-2.75,2.47-5.93,2.47-9.53s-.82-6.76-2.47-9.48c-1.64-2.72-3.89-4.85-6.73-6.4-2.85-1.55-6.1-2.32-9.77-2.32s-6.84.77-9.72,2.32c-2.88,1.55-5.12,3.68-6.73,6.4-1.61,2.72-2.42,5.88-2.42,9.48s.81,6.78,2.42,9.53c1.61,2.75,3.86,4.9,6.73,6.45,2.88,1.55,6.12,2.32,9.72,2.32Z"/>
    <path class="cls-3" d="m570.33,248.34c-3.73,0-6.97-.62-9.72-1.85-2.75-1.23-4.85-2.94-6.31-5.12-1.46-2.18-2.18-4.69-2.18-7.54,0-2.59.62-4.95,1.85-7.07,1.23-2.12,3.26-3.82,6.07-5.12,2.81-1.29,6.59-1.94,11.33-1.94h17.17v5.03h-16.98c-4.81,0-8.14.85-10.01,2.56-1.87,1.71-2.8,3.83-2.8,6.35,0,2.84,1.11,5.12,3.32,6.83,2.21,1.71,5.31,2.56,9.29,2.56s7.06-.87,9.82-2.61c2.75-1.74,4.76-4.25,6.02-7.54l1.52,4.65c-1.27,3.29-3.46,5.91-6.59,7.87-3.13,1.96-7.07,2.94-11.81,2.94Zm17.17-.47v-11l-.28-1.8v-18.4c0-4.24-1.19-7.49-3.56-9.77s-5.9-3.41-10.57-3.41c-3.22,0-6.29.54-9.2,1.61-2.91,1.08-5.38,2.5-7.4,4.27l-3.03-5.03c2.53-2.15,5.56-3.81,9.1-4.98,3.54-1.17,7.27-1.75,11.19-1.75,6.45,0,11.43,1.6,14.94,4.79,3.51,3.19,5.26,8.05,5.26,14.56v30.92h-6.45Z"/>
    <path class="cls-3" d="m635.48,245.97c-4.74,0-9.01-1.03-12.8-3.08s-6.78-4.92-8.96-8.58c-2.18-3.67-3.27-7.87-3.27-12.61s1.09-8.93,3.27-12.57c2.18-3.63,5.17-6.46,8.96-8.49s8.06-3.04,12.8-3.04c4.42,0,8.41.92,11.95,2.75,3.54,1.83,6.35,4.55,8.44,8.16s3.13,8,3.13,13.18-1.04,9.58-3.13,13.18c-2.09,3.6-4.9,6.35-8.44,8.25-3.54,1.9-7.52,2.85-11.95,2.85Zm1.23,20.77c-4.55,0-8.91-.66-13.09-1.99-4.17-1.33-7.56-3.22-10.15-5.69l3.41-5.12c2.34,2.09,5.23,3.75,8.68,4.98,3.45,1.23,7.1,1.85,10.95,1.85,6.32,0,10.97-1.47,13.94-4.41,2.97-2.94,4.46-7.51,4.46-13.7v-12.42l.95-8.54-.66-8.54v-15.08h6.45v43.72c0,8.6-2.1,14.9-6.31,18.92-4.21,4.01-10.42,6.02-18.64,6.02Zm-.57-26.74c3.67,0,6.92-.77,9.77-2.32,2.85-1.55,5.09-3.7,6.73-6.45,1.64-2.75,2.47-5.93,2.47-9.53s-.82-6.76-2.47-9.48c-1.64-2.72-3.89-4.85-6.73-6.4-2.85-1.55-6.1-2.32-9.77-2.32s-6.84.77-9.72,2.32c-2.88,1.55-5.12,3.68-6.73,6.4-1.61,2.72-2.42,5.88-2.42,9.48s.81,6.78,2.42,9.53c1.61,2.75,3.86,4.9,6.73,6.45,2.88,1.55,6.12,2.32,9.72,2.32Z"/>
    <path class="cls-3" d="m704.81,248.34c-5.19,0-9.74-1.09-13.66-3.27-3.92-2.18-6.99-5.18-9.2-9.01-2.21-3.82-3.32-8.2-3.32-13.13s1.06-9.29,3.18-13.09c2.12-3.79,5.03-6.78,8.73-8.96,3.7-2.18,7.85-3.27,12.47-3.27s8.83,1.06,12.47,3.18c3.63,2.12,6.5,5.09,8.58,8.92,2.09,3.83,3.13,8.24,3.13,13.23,0,.32-.02.65-.05,1-.03.35-.05.71-.05,1.09h-43.34v-5.03h39.74l-2.66,1.99c0-3.6-.77-6.81-2.32-9.63-1.55-2.81-3.65-5.01-6.31-6.59-2.66-1.58-5.72-2.37-9.2-2.37s-6.48.79-9.2,2.37c-2.72,1.58-4.84,3.79-6.35,6.64-1.52,2.84-2.28,6.1-2.28,9.77v1.04c0,3.79.84,7.13,2.51,10,1.67,2.88,4.01,5.12,7.02,6.73,3,1.61,6.43,2.42,10.29,2.42,3.03,0,5.86-.54,8.49-1.61,2.62-1.07,4.88-2.72,6.78-4.93l3.79,4.36c-2.21,2.66-4.98,4.68-8.3,6.07-3.32,1.39-6.97,2.09-10.95,2.09Z"/>
  </g>
</svg>