<?xml version="1.0" encoding="UTF-8"?>
<svg id="Layer_1" data-name="Layer 1" xmlns="http://www.w3.org/2000/svg" viewBox="0 0 587.23 185.87">
  <defs>
    <style>
      .cls-1 {
        fill: #3498db;
      }

      .cls-1, .cls-2, .cls-3, .cls-4 {
        stroke-width: 0px;
      }

      .cls-2 {
        fill: #fff;
      }

      .cls-3 {
        fill: #444;
      }

      .cls-4 {
        fill: #6d6c6c;
      }
    </style>
  </defs>
  <g>
    <path class="cls-3" d="m175.32,95.93l28-63.02h14.4l28.27,63.02h-15.3l-23.14-55.64h5.85l-23.14,55.64h-14.94Zm14.13-13.5l3.69-11.07h32.59l3.78,11.07h-40.06Z"/>
    <path class="cls-3" d="m267.42,96.65c-4.14,0-8.1-.49-11.88-1.49-3.78-.99-6.81-2.23-9.09-3.74l4.59-9.99c2.28,1.32,4.94,2.42,7.97,3.29,3.03.87,6.02,1.31,8.96,1.31,3.24,0,5.54-.39,6.89-1.17,1.35-.78,2.03-1.86,2.03-3.24,0-1.14-.53-1.99-1.58-2.57-1.05-.57-2.43-1-4.14-1.31-1.71-.3-3.62-.6-5.72-.9-2.1-.3-4.19-.72-6.26-1.26-2.07-.54-3.99-1.31-5.76-2.3-1.77-.99-3.18-2.35-4.23-4.1-1.05-1.74-1.58-3.99-1.58-6.75,0-3.06.9-5.78,2.7-8.15,1.8-2.37,4.35-4.22,7.65-5.54,3.3-1.32,7.29-1.98,11.97-1.98,3.36,0,6.74.38,10.13,1.12,3.39.75,6.26,1.79,8.6,3.11l-4.77,9.99c-2.28-1.32-4.61-2.25-6.98-2.79-2.37-.54-4.64-.81-6.8-.81-3.24,0-5.58.42-7.02,1.26-1.44.84-2.16,1.92-2.16,3.24,0,1.2.54,2.12,1.62,2.75,1.08.63,2.49,1.1,4.23,1.4,1.74.3,3.66.6,5.76.9,2.1.3,4.17.72,6.21,1.26,2.04.54,3.95,1.3,5.72,2.3,1.77.99,3.18,2.36,4.23,4.1,1.05,1.74,1.58,3.99,1.58,6.75,0,2.94-.9,5.57-2.7,7.88-1.8,2.31-4.4,4.13-7.79,5.45-3.39,1.32-7.52,1.98-12.38,1.98Z"/>
    <path class="cls-3" d="m315.13,96.65c-4.14,0-8.1-.49-11.88-1.49-3.78-.99-6.81-2.23-9.09-3.74l4.59-9.99c2.28,1.32,4.94,2.42,7.97,3.29,3.03.87,6.02,1.31,8.96,1.31,3.24,0,5.54-.39,6.89-1.17,1.35-.78,2.03-1.86,2.03-3.24,0-1.14-.53-1.99-1.58-2.57-1.05-.57-2.43-1-4.14-1.31-1.71-.3-3.62-.6-5.72-.9-2.1-.3-4.19-.72-6.26-1.26-2.07-.54-3.99-1.31-5.76-2.3-1.77-.99-3.18-2.35-4.23-4.1-1.05-1.74-1.58-3.99-1.58-6.75,0-3.06.9-5.78,2.7-8.15,1.8-2.37,4.35-4.22,7.65-5.54,3.3-1.32,7.29-1.98,11.97-1.98,3.36,0,6.74.38,10.13,1.12,3.39.75,6.26,1.79,8.6,3.11l-4.77,9.99c-2.28-1.32-4.61-2.25-6.98-2.79-2.37-.54-4.64-.81-6.8-.81-3.24,0-5.58.42-7.02,1.26-1.44.84-2.16,1.92-2.16,3.24,0,1.2.54,2.12,1.62,2.75,1.08.63,2.49,1.1,4.23,1.4,1.74.3,3.66.6,5.76.9,2.1.3,4.17.72,6.21,1.26,2.04.54,3.95,1.3,5.72,2.3,1.77.99,3.18,2.36,4.23,4.1,1.05,1.74,1.58,3.99,1.58,6.75,0,2.94-.9,5.57-2.7,7.88-1.8,2.31-4.4,4.13-7.79,5.45-3.39,1.32-7.52,1.98-12.38,1.98Z"/>
    <path class="cls-3" d="m366.99,96.65c-4.08,0-7.68-.78-10.8-2.34-3.12-1.56-5.55-3.96-7.29-7.2-1.74-3.24-2.61-7.32-2.61-12.24v-27.37h14.04v25.21c0,4.08.86,7.07,2.57,8.96s4.13,2.84,7.25,2.84c2.16,0,4.08-.48,5.76-1.44,1.68-.96,3.02-2.4,4.01-4.32.99-1.92,1.49-4.32,1.49-7.2v-24.04h13.95v48.44h-13.32v-13.41l2.43,3.96c-1.68,3.36-4.08,5.9-7.2,7.61-3.12,1.71-6.54,2.57-10.26,2.57Z"/>
    <path class="cls-3" d="m408.31,95.93v-48.44h13.41v13.77l-1.89-4.05c1.44-3.42,3.75-6.02,6.93-7.79,3.18-1.77,7.05-2.66,11.61-2.66v13.05c-.54-.12-1.07-.21-1.58-.27-.51-.06-1.01-.09-1.49-.09-3.96,0-7.11,1.11-9.45,3.33-2.34,2.22-3.51,5.64-3.51,10.26v22.87h-14.04Z"/>
    <path class="cls-3" d="m453.23,40.74c-2.64,0-4.77-.75-6.39-2.25-1.62-1.5-2.43-3.36-2.43-5.58s.81-4.08,2.43-5.58c1.62-1.5,3.75-2.25,6.39-2.25s4.7.71,6.35,2.12c1.65,1.41,2.48,3.23,2.48,5.45,0,2.34-.81,4.28-2.43,5.81-1.62,1.53-3.75,2.3-6.39,2.3Zm-7.02,55.19v-48.44h14.04v48.44h-14.04Z"/>
    <path class="cls-3" d="m465.75,59.38v-10.8h33.58v10.8h-33.58Zm7.47,36.55v-49.52c0-5.52,1.62-9.9,4.86-13.14,3.24-3.24,7.86-4.86,13.86-4.86,1.98,0,3.93.21,5.85.63,1.92.42,3.54,1.05,4.86,1.89l-3.69,10.26c-.78-.54-1.65-.96-2.61-1.26-.96-.3-1.98-.45-3.06-.45-2.04,0-3.62.57-4.73,1.71-1.11,1.14-1.67,2.94-1.67,5.4v4.5l.45,5.94v38.89h-14.13Zm40.51-55.19c-2.64,0-4.77-.75-6.39-2.25-1.62-1.5-2.43-3.36-2.43-5.58s.81-4.08,2.43-5.58c1.62-1.5,3.75-2.25,6.39-2.25s4.7.71,6.35,2.12c1.65,1.41,2.48,3.23,2.48,5.45,0,2.34-.81,4.28-2.43,5.81-1.62,1.53-3.75,2.3-6.39,2.3Zm-7.02,55.19v-48.44h14.04v48.44h-14.04Z"/>
    <path class="cls-3" d="m540.83,40.74c-2.64,0-4.77-.75-6.39-2.25-1.62-1.5-2.43-3.36-2.43-5.58s.81-4.08,2.43-5.58c1.62-1.5,3.75-2.25,6.39-2.25s4.7.71,6.35,2.12c1.65,1.41,2.48,3.23,2.48,5.45,0,2.34-.81,4.28-2.43,5.81-1.62,1.53-3.75,2.3-6.39,2.3Zm-7.02,55.19v-48.44h14.04v48.44h-14.04Z"/>
  </g>
  <g>
    <path class="cls-1" d="m78.32,16.75s-10.61,2.14-33.63,8.07c-21.75,5.61-29.37,7.85-29.37,7.85,0,0-1.12,22.42,8.74,63.01,7.96,32.76,37.67,50.9,54.26,61.17,16.59-10.27,46.3-28.41,54.26-61.17,9.87-40.58,8.74-63.01,8.74-63.01,0,0-7.62-2.24-29.37-7.85-23.02-5.93-33.63-8.07-33.63-8.07h0Z"/>
    <path class="cls-2" d="m44.87,80.56c7.95.38,14.2,4.32,19.01,10.84.6.82,1.13,1.68,1.71,2.52.93,1.36,1.43,1.36,2.29-.05,2.44-3.98,4.98-7.89,7.74-11.66,11.45-15.68,25.73-28.32,41.86-38.97.72-.48,1.51-1.1,2.28-.18.81.97.03,1.71-.58,2.37-6.88,7.6-13.36,15.52-19.47,23.76-12.21,16.48-22.61,34.02-30.95,52.78-.32.73-.56,1.63-1.56,1.66-1.12.04-1.34-.93-1.65-1.72-4.52-11.36-10.05-22.16-17.56-31.87-1.73-2.24-3.62-4.37-5.44-6.55-.5-.6-1.34-1.09-.97-2.05.4-1.05,1.37-.86,2.22-.88.25,0,.51,0,1.07,0Z"/>
  </g>
  <g>
    <path class="cls-4" d="m177.11,156.84v-38.67h3.37l17.68,30.17h-1.77l17.51-30.17h3.37v38.67h-3.92v-32.54h.94l-16.13,27.62h-1.93l-16.24-27.62h1.05v32.54h-3.92Z"/>
    <path class="cls-4" d="m256.22,157.12c-2.84,0-5.36-.64-7.57-1.91-2.21-1.27-3.96-3.03-5.25-5.28-1.29-2.25-1.93-4.79-1.93-7.62s.64-5.47,1.93-7.68c1.29-2.21,3.04-3.94,5.25-5.19,2.21-1.25,4.73-1.88,7.57-1.88s5.42.64,7.65,1.91c2.23,1.27,3.98,3,5.25,5.19s1.91,4.74,1.91,7.65-.64,5.42-1.91,7.65-3.03,3.98-5.28,5.25c-2.25,1.27-4.79,1.91-7.62,1.91Zm0-3.48c2.1,0,3.96-.47,5.58-1.41,1.62-.94,2.9-2.26,3.84-3.98s1.41-3.69,1.41-5.94-.47-4.27-1.41-5.97c-.94-1.69-2.22-3.01-3.84-3.95-1.62-.94-3.46-1.41-5.52-1.41s-3.9.47-5.52,1.41c-1.62.94-2.91,2.26-3.87,3.95-.96,1.7-1.44,3.68-1.44,5.97s.48,4.23,1.44,5.94c.96,1.71,2.24,3.04,3.84,3.98,1.6.94,3.43,1.41,5.5,1.41Z"/>
    <path class="cls-4" d="m294.4,156.84v-29h3.76v7.9l-.39-1.38c.81-2.21,2.17-3.9,4.09-5.06,1.91-1.16,4.29-1.74,7.13-1.74v3.81c-.15,0-.3,0-.44-.03-.15-.02-.3-.03-.44-.03-3.06,0-5.45.93-7.18,2.79-1.73,1.86-2.6,4.5-2.6,7.93v14.81h-3.92Z"/>
    <path class="cls-4" d="m328.21,131.1v-3.26h17.96v3.26h-17.96Zm13.7,26.02c-2.73,0-4.83-.74-6.3-2.21-1.47-1.47-2.21-3.55-2.21-6.24v-27.24h3.92v27.02c0,1.69.43,3,1.3,3.92.86.92,2.11,1.38,3.73,1.38,1.73,0,3.17-.5,4.31-1.49l1.38,2.82c-.77.7-1.7,1.21-2.79,1.55-1.09.33-2.2.5-3.34.5Z"/>
    <path class="cls-4" d="m381.08,155.74c-2.76,0-5.25-.6-7.46-1.8-2.21-1.2-3.95-2.86-5.22-5-1.27-2.14-1.91-4.59-1.91-7.35s.64-5.2,1.91-7.32c1.27-2.12,3.01-3.77,5.22-4.94,2.21-1.18,4.7-1.77,7.46-1.77,2.58,0,4.9.53,6.96,1.6,2.06,1.07,3.7,2.65,4.92,4.75,1.22,2.1,1.82,4.66,1.82,7.68s-.61,5.58-1.82,7.68c-1.22,2.1-2.85,3.7-4.92,4.81-2.06,1.11-4.38,1.66-6.96,1.66Zm.72,12.1c-2.65,0-5.19-.39-7.62-1.16s-4.4-1.88-5.91-3.31l1.99-2.98c1.36,1.21,3.05,2.18,5.06,2.9,2.01.72,4.13,1.08,6.38,1.08,3.68,0,6.39-.86,8.12-2.57,1.73-1.71,2.6-4.37,2.6-7.98v-7.24l.55-4.97-.39-4.97v-8.78h3.76v25.47c0,5.01-1.23,8.68-3.67,11.02-2.45,2.34-6.07,3.51-10.86,3.51Zm-.33-15.58c2.14,0,4.03-.45,5.69-1.35,1.66-.9,2.96-2.15,3.92-3.76.96-1.6,1.44-3.45,1.44-5.55s-.48-3.94-1.44-5.53c-.96-1.58-2.27-2.83-3.92-3.73s-3.55-1.35-5.69-1.35-3.99.45-5.66,1.35c-1.68.9-2.98,2.15-3.92,3.73-.94,1.58-1.41,3.43-1.41,5.53s.47,3.95,1.41,5.55c.94,1.6,2.25,2.86,3.92,3.76,1.68.9,3.56,1.35,5.66,1.35Z"/>
    <path class="cls-4" d="m430.8,157.12c-2.17,0-4.06-.36-5.66-1.08-1.6-.72-2.83-1.71-3.67-2.98-.85-1.27-1.27-2.74-1.27-4.39,0-1.51.36-2.88,1.08-4.12.72-1.23,1.9-2.23,3.54-2.98,1.64-.75,3.84-1.13,6.6-1.13h10v2.93h-9.89c-2.8,0-4.74.5-5.83,1.49-1.09.99-1.63,2.23-1.63,3.7,0,1.66.64,2.98,1.93,3.98,1.29,1,3.09,1.49,5.41,1.49s4.12-.51,5.72-1.52c1.6-1.01,2.77-2.48,3.51-4.39l.88,2.71c-.74,1.92-2.02,3.44-3.84,4.58-1.82,1.14-4.12,1.71-6.88,1.71Zm10-.28v-6.41l-.17-1.05v-10.72c0-2.47-.69-4.36-2.07-5.69-1.38-1.33-3.44-1.99-6.16-1.99-1.88,0-3.67.31-5.36.94-1.69.63-3.13,1.46-4.31,2.49l-1.77-2.93c1.47-1.25,3.24-2.22,5.3-2.9,2.06-.68,4.24-1.02,6.52-1.02,3.76,0,6.66.93,8.7,2.79,2.04,1.86,3.07,4.69,3.07,8.48v18.01h-3.76Z"/>
    <path class="cls-4" d="m482.24,155.74c-2.76,0-5.25-.6-7.46-1.8-2.21-1.2-3.95-2.86-5.22-5-1.27-2.14-1.91-4.59-1.91-7.35s.64-5.2,1.91-7.32c1.27-2.12,3.01-3.77,5.22-4.94,2.21-1.18,4.7-1.77,7.46-1.77,2.58,0,4.9.53,6.96,1.6,2.06,1.07,3.7,2.65,4.92,4.75,1.22,2.1,1.82,4.66,1.82,7.68s-.61,5.58-1.82,7.68c-1.22,2.1-2.85,3.7-4.92,4.81-2.06,1.11-4.38,1.66-6.96,1.66Zm.72,12.1c-2.65,0-5.19-.39-7.62-1.16s-4.4-1.88-5.91-3.31l1.99-2.98c1.36,1.21,3.05,2.18,5.06,2.9,2.01.72,4.13,1.08,6.38,1.08,3.68,0,6.39-.86,8.12-2.57,1.73-1.71,2.6-4.37,2.6-7.98v-7.24l.55-4.97-.39-4.97v-8.78h3.76v25.47c0,5.01-1.23,8.68-3.67,11.02-2.45,2.34-6.07,3.51-10.86,3.51Zm-.33-15.58c2.14,0,4.03-.45,5.69-1.35,1.66-.9,2.96-2.15,3.92-3.76.96-1.6,1.44-3.45,1.44-5.55s-.48-3.94-1.44-5.53c-.96-1.58-2.27-2.83-3.92-3.73s-3.55-1.35-5.69-1.35-3.99.45-5.66,1.35c-1.68.9-2.98,2.15-3.92,3.73-.94,1.58-1.41,3.43-1.41,5.53s.47,3.95,1.41,5.55c.94,1.6,2.25,2.86,3.92,3.76,1.68.9,3.56,1.35,5.66,1.35Z"/>
    <path class="cls-4" d="m536.1,157.12c-3.02,0-5.67-.64-7.96-1.91-2.28-1.27-4.07-3.02-5.36-5.25-1.29-2.23-1.93-4.78-1.93-7.65s.62-5.41,1.85-7.62c1.23-2.21,2.93-3.95,5.08-5.22,2.15-1.27,4.58-1.91,7.27-1.91s5.15.62,7.26,1.85c2.12,1.23,3.78,2.97,5,5.19,1.22,2.23,1.82,4.8,1.82,7.71,0,.18,0,.38-.03.58-.02.2-.03.42-.03.64h-25.25v-2.93h23.15l-1.55,1.16c0-2.1-.45-3.97-1.35-5.61-.9-1.64-2.13-2.92-3.67-3.84-1.55-.92-3.33-1.38-5.36-1.38s-3.78.46-5.36,1.38c-1.58.92-2.82,2.21-3.7,3.87-.88,1.66-1.33,3.55-1.33,5.69v.61c0,2.21.49,4.15,1.46,5.83.98,1.68,2.34,2.98,4.09,3.92,1.75.94,3.75,1.41,5.99,1.41,1.77,0,3.42-.31,4.94-.94,1.53-.63,2.85-1.58,3.95-2.87l2.21,2.54c-1.29,1.55-2.9,2.73-4.83,3.54-1.93.81-4.06,1.22-6.38,1.22Z"/>
  </g>
</svg>