<svg width="215" height="48" viewBox="0 0 215 48" fill="none" xmlns="http://www.w3.org/2000/svg">
<g clip-path="url(#clip0_897_76)">
<path d="M34.4 8C33.7 7.5 32.8 7 32 6.5C30.1 6.6 23.3 7.5 23 12.1C23 12.1 23 12.2 23.1 12.1C26.2 7.6 32.5 7.7 34.4 8Z" fill="black"/>
<path d="M20.7001 17.4001C20.4001 17.4001 20.2001 17.5001 20.1001 17.8001C19.9001 18.3001 20.1001 18.6001 19.8001 18.8001C19.7001 18.9001 19.7001 19.2001 19.9001 19.2001C21.1001 19.2001 21.9001 19.2001 23.3001 18.2001C23.4001 18.1001 23.4001 17.9001 23.3001 17.8001C22.5001 17.6001 21.4001 17.3001 20.7001 17.4001Z" fill="black"/>
<path d="M28.6004 14.6001C28.7004 14.6001 28.7004 14.6001 28.6004 14.6001C29.0004 14.6001 29.1004 14.7001 29.0004 14.5001C28.2004 13.5001 26.9004 14.6001 26.4004 15.0001C26.8004 15.2001 27.2004 15.5001 27.5004 15.7001C27.8004 15.1001 28.3004 14.6001 28.6004 14.6001Z" fill="black"/>
<path d="M38.7002 28.5001C38.7002 23.7001 36.2002 19.5001 32.4002 17.1001C35.8002 18.4001 39.2002 20.3001 42.0002 22.5001C42.0002 21.3001 41.8002 20.2001 41.6002 19.0001C39.1002 16.2001 35.4002 14.3001 31.5002 14.0001C31.4002 13.7001 31.0002 13.0001 30.1002 12.5001C31.1002 12.3001 32.1002 12.1001 33.2002 12.1001C34.7002 12.1001 36.0002 12.3001 37.3002 12.7001C38.2002 13.0001 39.3002 13.4001 39.5002 13.5001C38.9002 12.4001 38.1002 11.4001 37.2002 10.4001C26.0002 7.90005 24.9002 14.4001 24.9002 14.4001C24.9002 14.5001 24.9002 14.5001 25.0002 14.6001C25.0002 14.6001 25.1002 14.6001 25.2002 14.6001C25.2002 14.6001 25.3002 14.6001 25.4002 14.6001C25.6002 14.3001 25.9002 14.1001 26.2002 13.9001C26.8002 13.4001 27.8002 12.8001 29.3002 13.3001C30.3002 13.7001 30.9002 14.6001 30.9002 15.7001C30.9002 16.7001 30.3002 17.6001 29.4002 18.1001C29.4002 18.2001 29.5002 18.3001 29.5002 18.4001C29.7002 19.0001 29.8002 19.6001 29.8002 20.3001C29.8002 21.7001 29.2002 23.1001 28.3002 24.1001C28.3002 24.1001 28.4002 23.9001 28.5002 23.6001C28.7002 23.1001 28.8002 22.6001 28.8002 22.1001C28.8002 21.0001 28.3002 20.0001 27.6002 19.3001C28.1002 21.1001 27.6002 26.5001 23.3002 26.4001C23.3002 26.4001 21.8002 26.4001 21.2002 26.2001C21.2002 26.2001 21.3002 28.5001 19.7002 28.8001C19.2002 28.9001 18.7002 28.9001 18.2002 28.9001C16.9002 28.9001 15.6002 28.5001 14.3002 27.8001C13.2002 27.1001 12.9002 26.4001 12.9002 26.2001C12.9002 24.5001 13.4002 24.2001 14.4002 24.0001C14.8002 23.9001 15.5002 24.0001 16.0002 24.1001C16.1002 24.1001 16.2002 24.1001 16.1002 23.9001C16.0002 23.6001 15.8002 23.2001 15.7002 23.1001C15.5002 23.0001 15.2002 22.9001 14.9002 22.9001C14.5002 22.9001 14.2002 23.1001 13.8002 23.1001C13.2002 23.1001 13.0002 22.6001 12.3002 22.6001C11.8002 22.6001 11.7002 23.0001 11.3002 23.0001C11.1002 23.0001 10.9002 22.7001 11.0002 22.5001C11.2002 22.0001 11.7002 21.2001 12.1002 20.9001C13.0002 20.3001 14.4002 19.6001 15.2002 19.0001C15.5002 18.8001 15.9002 15.6001 18.4002 14.9001C18.6002 14.9001 18.7002 14.9001 18.9002 14.8001C17.1002 9.60005 21.6002 7.50005 21.6002 7.50005C20.7002 8.10005 19.2002 10.1001 20.2002 12.4001H20.3002C21.3002 6.60005 28.3002 5.80005 30.3002 5.70005C28.2002 4.90005 25.9002 4.40005 23.5002 4.40005C13.0002 4.30005 4.7002 12.7001 4.7002 23.0001C4.7002 31.5001 10.4002 38.7001 18.2002 40.9001L17.9002 39.3001C17.8002 38.7001 17.7002 38.1001 17.7002 37.4001C17.7002 33.4001 20.0002 30.0001 23.4002 28.4001C22.6002 29.8001 22.1002 31.4001 22.1002 33.1001C22.1002 33.9001 22.2002 34.6001 22.5002 35.3001C22.9002 33.2001 24.0002 31.2001 25.6002 29.9001C26.6002 28.9001 27.5002 28.1001 28.7002 26.8001C29.6002 25.8001 30.2002 24.6001 30.7002 23.3001C30.8002 22.9001 30.9002 22.6001 31.0002 22.3001C31.0002 22.1001 31.1002 21.9001 31.1002 21.8001C31.1002 21.6001 31.2002 21.3001 31.2002 21.3001C31.2002 21.3001 31.3002 21.7001 31.3002 22.0001C31.3002 22.2001 31.3002 22.5001 31.3002 22.7001C31.4002 24.5001 31.2002 26.4001 30.6002 28.1001C30.6002 28.2001 30.5002 28.4001 30.5002 28.5001C29.7002 30.9001 28.3002 32.9001 26.8002 34.8001C25.5002 36.4001 24.6002 38.4001 24.6002 40.7001C24.6002 41.0001 24.6002 41.4001 24.6002 41.7001C25.7002 41.6001 26.8002 41.5001 27.8002 41.2001C27.9002 40.7001 28.2002 39.7001 28.2002 39.7001C30.0002 35.0001 34.8002 31.5001 34.6002 24.7001C34.6002 24.7001 34.6002 24.7001 34.7002 24.7001C36.0002 27.2001 35.2002 32.5001 34.3002 36.5001C34.1002 37.2001 34.0002 38.0001 33.8002 38.6001C34.9002 37.8001 36.0002 36.9001 37.0002 35.9001C38.3002 33.7001 38.7002 31.1001 38.7002 28.5001ZM11.7002 27.1001C11.6002 27.3001 11.5002 27.6001 11.4002 27.6001C11.3002 27.6001 11.2002 27.1001 11.1002 26.9001C11.0002 26.7001 11.0002 26.5001 11.0002 26.3001C10.9002 26.0001 10.8002 25.6001 10.8002 25.3001C10.8002 24.8001 10.8002 24.3001 11.1002 23.9001C11.1002 23.9001 11.3002 23.6001 11.5002 23.6001C12.1002 23.6001 12.2002 24.8001 12.2002 25.6001C12.1002 26.0001 11.9002 26.8001 11.7002 27.1001ZM18.7002 29.8001C16.0002 31.9001 16.0002 32.9001 16.0002 32.9001C15.0002 32.3001 13.9002 30.7001 13.6002 30.0001C13.5002 30.2001 13.4002 30.7001 13.5002 30.9001C13.5002 30.9001 13.5002 31.0001 13.4002 30.9001C13.3002 30.8001 13.2002 30.6001 13.1002 30.4001C12.9002 30.0001 12.6002 29.6001 12.6002 29.2001C12.6002 29.2001 12.5002 28.5001 12.5002 28.2001C12.5002 27.6001 12.7002 27.1001 12.9002 26.9001C13.3002 27.7001 14.5002 28.6001 15.2002 28.9001C15.8002 29.5001 17.3002 29.9001 18.7002 29.8001Z" fill="black"/>
<path d="M37.2003 12.8001C35.9003 12.4001 34.5003 12.2001 33.1003 12.2001C32.0003 12.2001 31.0003 12.3001 30.0003 12.6001C30.9003 13.1001 31.3003 13.8001 31.5003 14.1001C35.5003 14.4001 39.1003 16.3001 41.6003 19.2001C41.0003 16.2001 39.7003 14.2001 39.4003 13.7001C39.4003 13.5001 38.2003 13.1001 37.2003 12.8001ZM26.4003 15.1001C26.9003 14.6001 28.2003 13.5001 29.0003 14.6001C29.1003 14.8001 29.0003 14.7001 28.7003 14.7001C28.7003 14.7001 28.7003 14.7001 28.6003 14.7001C28.2003 14.7001 27.7003 15.2001 27.5003 15.9001C27.2003 15.5001 26.8003 15.3001 26.4003 15.1001ZM23.2003 18.3001C21.8003 19.2001 21.0003 19.2001 19.8003 19.3001C19.6003 19.3001 19.6003 19.0001 19.7003 18.9001C20.0003 18.7001 19.8003 18.4001 20.0003 17.9001C20.1003 17.6001 20.3003 17.5001 20.6003 17.5001C21.3003 17.5001 22.4003 17.7001 23.1003 18.0001C23.3003 18.0001 23.3003 18.2001 23.2003 18.3001ZM31.6003 6.30008C29.1003 5.10008 26.3003 4.40007 23.4003 4.40007C13.2003 4.30007 4.80034 12.5001 4.60034 22.7001C4.50034 28.7001 7.20034 34.0001 11.5003 37.6001C12.4003 38.3001 13.4003 39.0001 14.4003 39.6001C14.4003 39.6001 14.4003 39.6001 14.5003 39.6001C17.2003 41.1001 20.2003 41.8001 23.4003 41.8001C23.8003 41.8001 24.3003 41.8001 24.7003 41.8001C24.7003 41.5001 24.7003 41.1001 24.7003 40.7001C24.7003 38.4001 25.6003 36.4001 26.9003 34.8001C28.4003 32.9001 29.8003 30.8001 30.6003 28.4001C30.6003 28.3001 30.7003 28.1001 30.7003 28.0001C31.2003 26.3001 31.5003 24.4001 31.4003 22.6001C31.4003 22.4001 31.4003 22.1001 31.4003 21.9001C31.4003 21.7001 31.4003 21.2001 31.3003 21.2001C31.3003 21.2001 31.2003 21.6001 31.2003 21.7001C31.2003 21.8001 31.1003 22.1001 31.1003 22.2001C31.0003 22.6001 30.9003 22.9001 30.8003 23.3001C30.3003 24.5001 29.7003 25.8001 28.8003 26.8001C27.7003 28.1001 26.7003 29.0001 25.7003 30.0001C24.1003 31.4001 23.0003 33.3001 22.6003 35.4001C22.3003 34.7001 22.2003 34.0001 22.2003 33.2001C22.2003 31.5001 22.7003 29.9001 23.5003 28.4001C20.1003 30.0001 17.8003 33.5001 17.8003 37.4001C17.8003 38.0001 17.8003 38.7001 18.0003 39.3001C11.1003 37.1001 6.10034 30.6001 6.10034 23.0001C6.00034 13.5001 13.7003 5.70007 23.3003 5.70007C24.4003 5.70007 25.8003 5.80007 26.8003 6.10007C26.9003 6.10007 21.0003 7.20008 20.2003 12.3001H20.1003C19.1003 9.90007 20.7003 8.00007 21.5003 7.40007C21.5003 7.40007 17.0003 9.50007 18.8003 14.7001C18.6003 14.8001 18.5003 14.8001 18.3003 14.8001C15.9003 15.5001 15.5003 18.6001 15.1003 18.9001C14.3003 19.5001 12.8003 20.2001 12.0003 20.8001C11.7003 21.0001 11.1003 21.9001 10.9003 22.4001C10.9003 22.6001 11.0003 22.9001 11.2003 22.9001C11.6003 22.9001 11.6003 22.5001 12.2003 22.5001C12.8003 22.5001 13.0003 22.9001 13.7003 23.0001C14.1003 23.0001 14.4003 22.8001 14.8003 22.8001C15.1003 22.8001 15.4003 22.8001 15.6003 23.0001C15.7003 23.1001 15.9003 23.5001 16.0003 23.8001C16.0003 23.9001 16.0003 24.0001 15.9003 24.0001C15.4003 23.9001 14.8003 23.7001 14.3003 23.9001C13.3003 24.2001 12.9003 24.4001 12.8003 26.1001C12.8003 26.4001 13.2003 27.1001 14.2003 27.7001C15.5003 28.5001 16.8003 28.8001 18.1003 28.8001C18.6003 28.8001 19.1003 28.8001 19.6003 28.7001C21.2003 28.4001 21.1003 26.1001 21.1003 26.1001C21.6003 26.3001 23.2003 26.3001 23.2003 26.3001C27.5003 26.4001 28.0003 21.0001 27.5003 19.2001C28.2003 19.8001 28.6003 20.8001 28.6003 21.9001C28.6003 22.4001 28.5003 23.0001 28.3003 23.4001C28.2003 23.6001 28.1003 23.8001 28.1003 23.9001C29.0003 22.9001 29.6003 21.5001 29.6003 20.1001C29.6003 19.4001 29.5003 18.8001 29.3003 18.2001C29.3003 18.1001 29.2003 18.0001 29.2003 17.9001C30.1003 17.5001 30.7003 16.6001 30.7003 15.5001C30.7003 14.4001 30.1003 13.5001 29.1003 13.1001C27.6003 12.6001 26.7003 13.2001 26.0003 13.7001C25.7003 13.9001 25.5003 14.2001 25.2003 14.4001C25.2003 14.4001 25.1003 14.5001 25.0003 14.4001C25.0003 14.4001 24.9003 14.4001 24.8003 14.4001C24.7003 14.4001 24.7003 14.3001 24.7003 14.2001C24.7003 14.2001 25.8003 7.70008 36.9003 10.3001C36.1003 9.30008 34.8003 8.30008 34.2003 7.80008C32.2003 7.50008 25.9003 7.40007 22.9003 12.0001H22.8003C23.1003 7.40007 29.9003 6.50007 31.8003 6.40007L31.6003 6.30008Z" fill="#FEFEFE"/>
<path d="M42.0004 22.6001C39.2004 20.3001 35.9004 18.4001 32.4004 17.1001C36.2004 19.5001 38.7004 23.7001 38.7004 28.5001C38.7004 31.2001 38.2004 33.8001 37.0004 35.8001C42.5004 29.9001 42.0004 22.7001 42.0004 22.6001Z" fill="#FEFEFE"/>
<path d="M34.7004 24.6001C34.9004 31.4001 30.0004 34.8001 28.3004 39.6001C28.3004 39.6001 28.0004 40.7001 27.9004 41.2001C30.1004 40.7001 32.0004 39.8001 33.9004 38.5001C34.0004 37.9001 34.2004 37.1001 34.4004 36.4001C35.1004 32.5001 36.0004 27.1001 34.7004 24.6001Z" fill="#FEFEFE"/>
<path d="M10.9006 23.9001C10.6006 24.3001 10.6006 24.8001 10.6006 25.3001C10.6006 25.6001 10.7006 26.0001 10.8006 26.3001C10.8006 26.5001 10.9006 26.7001 11.0006 26.9001C11.1006 27.1001 11.2006 27.6001 11.3006 27.6001C11.4006 27.6001 11.5006 27.3001 11.6006 27.1001C11.8006 26.7001 12.0006 25.9001 12.0006 25.5001C12.0006 24.7001 11.9006 23.5001 11.3006 23.5001C11.2006 23.7001 11.0006 23.9001 10.9006 23.9001Z" fill="#FEFEFE"/>
<path d="M15.8002 33.0001C15.8002 33.0001 15.9002 31.9001 18.6002 29.9001C17.2002 30.1001 15.8002 29.6001 14.9002 29.2001C14.2002 28.9001 13.0002 28.0001 12.6002 27.2001C12.5002 27.4001 12.3002 27.9001 12.2002 28.5001C12.2002 28.8001 12.3002 29.5001 12.3002 29.5001C12.3002 29.9001 12.6002 30.3001 12.8002 30.7001C12.9002 30.8001 13.0002 31.0001 13.1002 31.2001C13.2002 31.3001 13.2002 31.2001 13.2002 31.2001C13.2002 31.0001 13.2002 30.5001 13.3002 30.3001C13.7002 30.8001 14.8002 32.4001 15.8002 33.0001Z" fill="#FEFEFE"/>
<path d="M117.6 26.1001V19.7001H113.6V26.1001V32.8001H121.7V31.2001H117.6V26.1001Z" fill="black"/>
<path d="M78.5996 21.3001H81.3996V26.0001V32.8001H85.4996V26.1001V21.3001H88.3996V19.7001H78.5996V21.3001Z" fill="black"/>
<path d="M73.4 26.1001V31.7001C72.3 31.8001 71.3 31.5001 71.3 30.5001V26.2001V19.7001H67.5V26.2001V28.9001V29.9001C67.5 31.4001 68.2 32.1001 69.1 32.5001C69.6 32.7001 70.1 32.9001 70.5 32.9001H77.3V32.5001V26.2001V19.7001H73.4V26.1001Z" fill="black"/>
<path d="M109.4 19.7001H102.1V20.9001H106.5C106.9 20.9001 107.1 21.2001 107.3 21.4001C107.6 21.9001 107.5 22.6001 107.5 22.6001V24.2001H103.6C102.5 24.2001 101.6 25.2001 101.6 26.5001V26.8001V28.9001V29.9001C101.6 31.2001 102.1 32.0001 102.7 32.5001C103.1 32.8001 103.5 32.9001 103.9 32.9001H111.3V32.5001V26.8001V22.0001V21.4001C111.5 20.5001 110.6 19.7001 109.4 19.7001ZM107.6 31.7001C106.5 31.8001 105.7 31.7001 105.6 30.5001C105.6 30.5001 105.6 28.6001 105.6 26.9001C105.6 25.9001 106.5 25.5001 107.5 25.5001V26.8001V31.7001H107.6Z" fill="black"/>
<path d="M95.6998 26.1001V31.7001C94.5998 31.8001 93.5998 31.5001 93.5998 30.5001V26.2001V19.7001H89.7998V26.2001V28.8001V29.8001C89.7998 31.3001 90.4998 32.0001 91.3998 32.4001C91.8998 32.6001 92.3998 32.8001 92.7998 32.8001H99.5998V32.4001V26.1001V19.6001H95.6998V26.1001Z" fill="black"/>
<path d="M173.1 19.7001H159.6V22.3001V26.3001V33.0001H163.7V26.3001V22.3001V21.0001C164.8 21.0001 165.7 21.3001 165.7 22.3001V26.3001V33.0001H169.9V32.6001V26.3001V22.3001V21.0001C171 21.0001 171.9 21.3001 171.9 22.3001V26.3001V33.0001H176.1V26.3001V22.2001C175.9 21.0001 174.5 19.7001 173.1 19.7001Z" fill="black"/>
<path d="M59 19L57.1 26.1L57 26.7L56.9 26.1L54.9 19L53.3 13.3H48V19V26.1V32.8H49.9V26.1V19V17.3L50.3 19L52.3 26.1L54.1 32.8H57.2L58.9 26.1L60.7 19L61.2 17.3V19V26.1V32.8H65.4V26.1V19V13.3H60.4L59 19Z" fill="black"/>
<path d="M133.2 19C132.7 19.6 132.5 20.1 132.5 20.1H127.2C126.4 20 125.9 19.9 125 20.2C123 20.8 122.4 22.2 122 23.2C121.6 24 121.6 25 122.3 25.8C122.4 25.9 122.6 26.1 122.8 26.2C124 27 126.2 26.9 127.6 26.2C127.7 26.2 127.8 26.1 127.8 26.1C128.9 25.4 129.9 23.5 129.4 21.5C129.4 21.4 129.4 21.3 129.4 21.2H132C132 21.2 131.9 21.3 131.8 21.5C131.5 22.2 130.8 23.8 130.2 25.2C130.1 25.6 129.9 25.9 129.7 26.2C129.6 26.5 129.4 26.7 129.3 26.9C128.8 27.7 128 29.5 126 30.1C124.2 30.7 122.3 29.6 122.3 29.6L122.2 30.6C122.5 30.8 122.7 30.8 122.8 30.9C123 31 123.2 31 123.7 31.1C125.8 31.6 128.7 30.2 130.1 28.8C130.5 28.4 131.1 27.8 132 26.1C132.1 25.8 132.3 25.5 132.5 25.1C132.7 24.7 132.9 24.3 133 23.8C133.5 22.7 133.9 21.2 133.9 21.2H137.4L137.7 20.2H134.4C134.5 19.8 134.6 19.5 134.8 19.1C135.1 18.6 135.3 18.1 135.4 17.9C135.8 17.4 136.1 16.7 137.6 16.8V15.8C136.1 16.2 135.1 16.8 134.3 17.5C133.9 17.9 133.5 18.5 133.2 19ZM126.7 23.9C126.5 24.4 126.3 24.7 126.1 25C125.6 25.6 125.1 26 124.5 25.8C124 25.7 123.7 25.4 123.7 25C123.7 24.5 123.9 24 124.2 23.5C124.4 23 125.3 21.3 125.3 21.3C125.5 21 125.8 20.8 126.1 20.8C126.8 20.7 127.3 20.9 127.4 21.3C127.6 22.2 127.1 23 126.7 23.9Z" fill="black"/>
<path d="M185.7 19.7001H178.4V20.9001H182.8C183.2 20.9001 183.4 21.2001 183.6 21.4001C183.9 21.9001 183.8 23.3001 183.8 23.3001V24.3001H179.8C178.7 24.3001 177.8 25.3001 177.8 26.6001V26.9001V29.0001V30.0001C177.8 31.3001 178.3 32.1001 178.9 32.6001C179.3 32.9001 179.7 33.0001 180.1 33.0001H187.5V32.6001V26.9001V22.0001V21.4001C187.8 20.5001 186.9 19.7001 185.7 19.7001ZM183.9 31.7001C182.8 31.8001 182 31.7001 181.9 30.5001C181.9 30.5001 181.9 28.6001 181.9 26.9001C181.9 25.9001 182.8 25.5001 183.8 25.5001V26.8001L183.9 31.7001Z" fill="black"/>
<path d="M210.1 19.6001H202.8V20.8001H207.2C207.6 20.8001 207.8 21.1001 208 21.3001C208.3 21.8001 208.2 23.2001 208.2 23.2001V24.2001H204.2C203.1 24.2001 202.2 25.2001 202.2 26.5001V26.8001V28.9001V29.9001C202.2 31.2001 202.7 32.0001 203.3 32.5001C203.7 32.8001 204.1 32.9001 204.5 32.9001H211.9V32.5001V26.8001V22.0001V21.4001C212.2 20.5001 211.3 19.6001 210.1 19.6001ZM208.3 31.7001C207.2 31.8001 206.4 31.7001 206.3 30.5001C206.3 30.5001 206.3 28.6001 206.3 26.9001C206.3 25.9001 207.2 25.5001 208.2 25.5001V26.8001L208.3 31.7001Z" fill="black"/>
<path d="M157.3 19.6001C157.2 19.4001 157.2 19.2001 157.1 18.9001C157 18.5001 156.8 18.1001 156.7 17.7001C155.3 14.3001 152.4 12.7001 148.4 12.7001C144.1 12.6001 141.2 14.7001 139.9 17.7001C139.7 18.1001 139.6 18.5001 139.5 18.9001V19.0001C139.3 19.7001 139.2 20.5001 139.1 21.3001C138.9 22.5001 138.9 23.9001 139 25.0001C139 25.4001 139.1 25.7001 139.2 26.0001C139.3 26.8001 139.5 27.6001 139.8 28.1001C139.9 28.3001 139.9 28.5001 140 28.6001C141.1 30.5001 142.3 31.6001 143.8 32.2001C145.2 32.8001 146.7 33.1001 148.5 33.0001C150 33.0001 151.3 32.7001 152.5 32.2001C153.9 31.6001 155.1 30.7001 156 29.6001C156.3 29.3001 156.4 28.9001 156.6 28.5001C157.2 27.3001 157.5 25.1001 157.5 24.8001C157.6 23.6001 157.6 22.2001 157.5 21.1001C157.5 20.8001 157.4 20.2001 157.3 19.6001ZM152.6 26.1001C152.6 27.0001 152.5 27.9001 152.3 28.8001C151.9 30.7001 150.8 32.2001 148.3 32.2001C145.7 32.2001 144.5 30.9001 144.1 28.8001C144 28.0001 143.9 27.1001 143.9 26.1001C143.9 25.8001 143.9 25.4001 143.9 25.1001V23.0001V21.4001C143.9 20.5001 143.9 19.7001 143.9 19.0001C143.9 18.6001 144 18.2001 144 17.8001C144.3 15.4001 145.2 14.0001 148.3 14.0001C151 14.0001 152 15.6001 152.4 17.8001C152.5 18.2001 152.5 18.6001 152.5 19.0001C152.5 19.8001 152.5 20.6001 152.5 21.5001V23.0001V25.1001C152.6 25.5001 152.6 25.8001 152.6 26.1001Z" fill="black"/>
<path d="M196.2 21.4001V23.7001V24.3001H194V23.7001V21.4001V19.7001H189.9V21.4001V23.7001V24.8001V28.8001V32.4001V32.8001H194V32.4001V28.8001V25.9001H196.2V28.8001V32.4001V32.8001H200.3V32.4001V28.8001V24.8001V23.7001V21.4001V19.7001H196.2V21.4001Z" fill="black"/>
<path d="M214.2 19.6001C213.7 19.6001 213.4 20.0001 213.4 20.4001C213.4 20.9001 213.8 21.2001 214.2 21.2001C214.7 21.2001 215 20.8001 215 20.4001C215.1 20.0001 214.7 19.6001 214.2 19.6001ZM214.2 21.1001C213.8 21.1001 213.6 20.8001 213.6 20.5001C213.6 20.1001 213.9 19.9001 214.2 19.9001C214.5 19.9001 214.8 20.2001 214.8 20.5001C214.9 20.8001 214.6 21.1001 214.2 21.1001Z" fill="black"/>
<path d="M214.401 20.3001V20.4001C214.401 20.4001 214.301 20.4001 214.201 20.4001H214.101V20.1001H214.201H214.301C214.401 20.2001 214.401 20.2001 214.401 20.3001ZM214.701 20.9001C214.701 20.9001 214.601 20.8001 214.601 20.7001C214.601 20.7001 214.601 20.6001 214.501 20.6001V20.5001C214.701 20.5001 214.801 20.4001 214.801 20.3001C214.801 20.2001 214.801 20.2001 214.701 20.1001C214.701 20.1001 214.601 20.1001 214.501 20.1001H214.201V21.0001H214.301V20.6001H214.401C214.401 20.6001 214.501 20.7001 214.601 20.9001C214.501 20.8001 214.501 20.9001 214.701 20.9001Z" fill="black"/>
</g>
<defs>
<clipPath id="clip0_897_76">
<rect width="215" height="48" fill="white"/>
</clipPath>
</defs>
</svg>
