<svg xmlns="http://www.w3.org/2000/svg" xmlns:xlink="http://www.w3.org/1999/xlink" viewBox="0 0 172.44 41.3"><defs><style>.cls-1{fill:#231f20;}.cls-2{fill:url(#linear-gradient);}.cls-3{fill:#cba251;}</style><linearGradient id="linear-gradient" x1="-2.73" y1="7.55" x2="13.83" y2="19.14" gradientUnits="userSpaceOnUse"><stop offset="0" stop-color="#cba251"/><stop offset="0.36" stop-color="#c9a04f"/><stop offset="0.55" stop-color="#c49b47"/><stop offset="0.7" stop-color="#ba9139"/><stop offset="0.83" stop-color="#ac8426"/><stop offset="0.95" stop-color="#9a730d"/><stop offset="1" stop-color="#916a00"/></linearGradient></defs><title>Asset 1</title><g id="Layer_2" data-name="Layer 2"><g id="Layer_1-2" data-name="Layer 1"><path class="cls-1" d="M24.25,6.28a1.37,1.37,0,1,1,1.38-1.38A1.36,1.36,0,0,1,24.25,6.28Zm0-2.59a1.22,1.22,0,1,0,1.21,1.22A1.21,1.21,0,0,0,24.26,3.69Zm.34,1.39L25,5.6h-.38l-.31-.47H24V5.6h-.32V4.14h.65c.35,0,.57.18.57.48A.45.45,0,0,1,24.6,5.08Zm-.27-.65H24v.43h.32c.16,0,.25-.09.25-.21S24.49,4.43,24.33,4.43Z"/><path class="cls-2" d="M11.9,20.26,2.56,0c-.51,3.2-1.41,8.13.21,13L.48,8c-.35,2.2-1,5.63.26,9l2.85,6.31H9L9.76,25Z"/><polygon points="4.76 23.56 5.1 24.3 5.75 24.3 6.09 23.56 4.76 23.56"/><path class="cls-3" d="M10.81,31.45"/><polygon class="cls-3" points="3.59 23.23 5.35 23.23 5.35 23.23 1.86 23.23 0.65 25.88 4.8 25.88 3.59 23.23"/><path d="M21.19,0C21.7,3.2,22.6,8.13,21,13l2.29-5c.35,2.2,1,5.63-.26,9L11.88,41.3,7.08,30.81Z"/><path class="cls-3" d="M73,35.41h0L71.07,32.6v4.25h-.58V31.59h.6L73,34.46l1.91-2.87h.6v5.25h-.59V32.59Z"/><path class="cls-3" d="M80.94,36.94a2.72,2.72,0,1,1,2.69-2.72A2.64,2.64,0,0,1,80.94,36.94Zm0-4.89a2.07,2.07,0,0,0-2.06,2.16A2.09,2.09,0,0,0,81,36.39,2.07,2.07,0,0,0,83,34.23,2.09,2.09,0,0,0,80.94,32Z"/><path class="cls-3" d="M90,36.85l-1.52-2H87v2h-.59V31.59h2.26c1.16,0,1.9.62,1.9,1.57a1.54,1.54,0,0,1-1.43,1.54l1.61,2.15Zm-1.4-4.71H87v2.13h1.61c.79,0,1.35-.41,1.35-1.09S89.44,32.14,88.59,32.14Z"/><path class="cls-3" d="M95.24,36.85h-.6V32.14H92.87v-.55H97v.55H95.24Z"/><path class="cls-3" d="M101.69,36.94A2.58,2.58,0,0,1,99,34.23a2.64,2.64,0,0,1,2.64-2.72,2.77,2.77,0,0,1,2,.7l-.38.45a2.23,2.23,0,0,0-1.6-.6,2.06,2.06,0,0,0-2,2.16,2,2,0,0,0,2.08,2.19,2.47,2.47,0,0,0,1.52-.53V34.57h-1.6V34h2.17v2.09A3.18,3.18,0,0,1,101.69,36.94Z"/><path class="cls-3" d="M111.52,36.85h-.64l-.62-1.39h-2.86l-.62,1.39h-.61l2.39-5.29h.56Zm-2.68-4.6-1.2,2.68H110Z"/><path class="cls-3" d="M116.18,36.94a2.58,2.58,0,0,1-2.67-2.71,2.64,2.64,0,0,1,2.63-2.72,2.77,2.77,0,0,1,2,.7l-.38.45a2.23,2.23,0,0,0-1.6-.6,2.06,2.06,0,0,0-2,2.16,2,2,0,0,0,2.08,2.19,2.47,2.47,0,0,0,1.52-.53V34.57h-1.6V34h2.17v2.09A3.18,3.18,0,0,1,116.18,36.94Z"/><path class="cls-3" d="M124.92,32.13h-3.21v1.79h2.87v.54h-2.87v1.84H125v.54h-3.84V31.59h3.8Z"/><path class="cls-1" d="M34.53,27.69H32.84l-3.52-8.77h2.11l2.28,6.13L36,18.92H38Z"/><path class="cls-1" d="M41.88,27.63V18.92h6.57v1.7H43.78v1.77h4.1v1.7h-4.1v1.83h4.73v1.7Z"/><path class="cls-1" d="M56.64,20.69v6.94H54.72V20.69H52.07V18.92h7.21v1.77Z"/><path class="cls-1" d="M63.24,27.63V18.92H69.8v1.7H65.14v1.77h4.1v1.7h-4.1v1.83h4.73v1.7Z"/><path class="cls-1" d="M79.34,27.63l-1.87-2.79H76v2.79H74.05V18.92h4c2.05,0,3.28,1.08,3.28,2.87v0a2.7,2.7,0,0,1-1.87,2.7l2.13,3.11Zm0-5.73c0-.82-.57-1.24-1.5-1.24H76v2.5h1.94c.93,0,1.47-.5,1.47-1.23Z"/><path class="cls-1" d="M92,27.63l-.8-2H87.53l-.8,2h-2l3.73-8.77h1.77L94,27.63Zm-2.64-6.47L88.22,24h2.31Z"/><path class="cls-1" d="M103.95,27.63l-4.22-5.53v5.53H97.84V18.92h1.77l4.08,5.36V18.92h1.89v8.71Z"/><path class="cls-1" d="M113.24,27.75a5.54,5.54,0,0,1-3.69-1.39L110.68,25a4,4,0,0,0,2.6,1.06c.78,0,1.26-.31,1.26-.82v0c0-.49-.3-.73-1.75-1.11-1.75-.45-2.89-.93-2.89-2.66v0c0-1.58,1.27-2.62,3-2.62a5,5,0,0,1,3.23,1.11l-1,1.44a4.09,4.09,0,0,0-2.26-.86c-.73,0-1.12.34-1.12.76v0c0,.57.37.76,1.88,1.14,1.77.46,2.76,1.09,2.76,2.61v0C116.44,26.78,115.12,27.75,113.24,27.75Z"/><path class="cls-1" d="M128.72,20.66v1.85h4.15v1.74h-4.15v3.37h-1.92V18.92h6.63v1.74Z"/><path class="cls-1" d="M137.54,27.63V18.92h1.92v8.71Z"/><path class="cls-1" d="M149.4,27.63l-1.87-2.79H146v2.79h-1.92V18.92h4c2.05,0,3.28,1.08,3.28,2.87v0a2.7,2.7,0,0,1-1.87,2.7l2.13,3.11Zm0-5.73c0-.82-.57-1.24-1.5-1.24H146v2.5H148c.93,0,1.47-.5,1.47-1.23Z"/><path class="cls-1" d="M158.69,27.75A5.54,5.54,0,0,1,155,26.36L156.13,25a4,4,0,0,0,2.6,1.06c.78,0,1.26-.31,1.26-.82v0c0-.49-.3-.73-1.75-1.11-1.75-.45-2.89-.93-2.89-2.66v0c0-1.58,1.27-2.62,3-2.62a5,5,0,0,1,3.23,1.11l-1,1.44a4.09,4.09,0,0,0-2.26-.86c-.73,0-1.12.34-1.12.76v0c0,.57.37.76,1.88,1.14,1.77.46,2.76,1.09,2.76,2.61v0C161.89,26.78,160.57,27.75,158.69,27.75Z"/><path class="cls-1" d="M169.79,20.69v6.94h-1.92V20.69h-2.65V18.92h7.21v1.77Z"/><path class="cls-3" d="M127.62,33h0a1.45,1.45,0,0,1,2.89,0h0a1.45,1.45,0,0,1-2.89,0Zm2.76,0h0a1.32,1.32,0,1,0-2.63,0h0a1.32,1.32,0,1,0,2.63,0Zm-1.88-.78h.66a.62.62,0,0,1,.44.16.39.39,0,0,1,.12.29h0a.44.44,0,0,1-.38.44l.46.6h-.27l-.43-.56h-.38v.56h-.22Zm.64.73c.21,0,.35-.1.35-.26h0c0-.16-.13-.26-.34-.26h-.44v.53Z"/></g></g></svg>